<svg width="1713" height="1117" viewBox="0 0 1713 1117" fill="none" xmlns="http://www.w3.org/2000/svg">
<path fill-rule="evenodd" clip-rule="evenodd" d="M586.528 348.216C586.412 321.928 540.296 292.365 520.597 277.124C481.646 246.978 441.136 219.141 401.002 190.858C360.866 162.576 320.623 134.37 282.352 103.321C257.502 83.1646 228.304 60.4636 211.451 31.6829C175.549 -29.6505 288.744 -20.5424 318.066 -21.884C392.658 -25.311 478.215 -23.747 548.133 -55.6864C589.872 -74.7534 606.515 -106.731 597.551 -153.337C594.661 -168.494 586.108 -185.936 593.354 -200.702C601.091 -216.472 618.89 -225.572 633.662 -231.675C687.544 -253.908 749.494 -256.484 806.504 -259.274C867.977 -262.341 930.029 -261.444 991.07 -261.682C1016.95 -261.782 1043.98 -271.649 1068.63 -279.668C1100.95 -290.179 1132.87 -301.986 1164.91 -313.401C1235.42 -338.456 1308.06 -364.845 1382.64 -371.208C1429.35 -375.195 1480.4 -369.805 1516.68 -335.129C1534.9 -317.718 1544.43 -291.835 1554.96 -268.842C1567.72 -241.066 1579.96 -213.022 1593.53 -185.683C1637.26 -97.6305 1699.68 -11.5878 1801.02 -7.26373C1816.34 -6.61206 1831.4 -8.73572 1846.66 -9.13437C1856.37 -9.37973 1865.02 -6.888 1868.63 3.89899C1877.7 30.9547 1849.16 73.6656 1837.46 95.1321C1811.84 142.121 1782.94 187.002 1755.88 233.048C1737.97 263.5 1706.97 305.114 1706.65 342.114C1706.36 375.08 1747.68 398.909 1770.17 415.146C1791.25 430.349 1829.44 451.625 1831.75 482.552C1832.88 497.548 1823.56 509.976 1813.83 519.62C1796.78 536.487 1777.12 548.386 1761.78 567.629C1736.62 599.2 1715.6 642.639 1719.02 685.182C1721.38 714.66 1737.24 733.965 1757.4 752.419C1765.87 760.177 1772.75 765.666 1773.19 778.262C1773.92 798.265 1766.53 819.433 1760.45 837.978C1738.69 904.348 1707.79 968.523 1673.42 1028.45C1656.24 1058.39 1637.68 1088.25 1614.9 1113.8C1599.98 1130.57 1579.87 1150.53 1557.12 1150.51C1530.77 1150.51 1502.89 1140.42 1477.28 1132.88C1429.46 1118.78 1382.21 1102.48 1335.14 1085.76C1226.3 1047.08 1118.49 1005.25 1011.7 960.303C936.48 928.583 859.663 896.82 788.944 854.653C775.151 846.373 762.133 836.718 750.065 825.819C737.17 814.373 721.17 809.252 704.945 805.433C604.247 781.735 493.926 799.928 392.809 811.337C367.143 814.227 341.478 817.133 315.739 819.157C293.614 820.897 267.124 825.888 245.62 818.39C203.245 803.632 240.288 749.237 255.949 727.072C311.087 649.034 382.227 583.008 448.165 515.603C479.516 483.503 511.105 451.487 540.751 417.569C556.188 399.936 586.629 371.263 586.528 348.216Z" fill="#010937"/>
<path fill-rule="evenodd" clip-rule="evenodd" d="M605.528 343.785C588.629 315.967 558.977 295.406 534.363 276.057C498.942 248.201 462.408 221.893 426.425 194.826C392.399 169.231 358.302 143.345 326.792 114.277C307.578 96.5525 283.47 75.3556 274.37 49.1395C254.628 -7.68372 360.832 0.937469 387.05 -0.549194C452.231 -4.22757 526.13 -5.07056 586.431 -34.988C624.084 -53.6711 639.554 -84.6537 631.523 -127.668C628.747 -142.55 623.745 -155.256 630.078 -170.06C637.4 -187.196 654.243 -197.878 669.683 -205.419C718.05 -229.046 775.221 -234.065 827.651 -238.241C881.815 -242.556 938.25 -245.598 990.672 -242.44C1011.63 -241.184 1035.76 -248.318 1056.51 -253.79C1088.43 -262.22 1120.02 -271.944 1151.79 -280.987C1216.35 -299.378 1282.58 -317.096 1349.73 -319.111C1398.2 -320.568 1448.76 -312.674 1489.1 -282.167C1529.98 -251.23 1548.11 -203.274 1570.78 -157.685C1609.93 -78.8679 1662.81 16.9614 1753.38 33.6138C1767.12 36.1425 1780.32 34.7709 1794.04 35.3917C1801.09 35.7058 1809.12 36.702 1812.7 44.0817C1821.99 63.2399 1796.54 98.269 1787.98 112.944C1764.3 153.498 1737.7 192.067 1712.89 231.84C1693.19 263.42 1668.23 298.51 1660.61 335.945C1651.36 381.374 1711.77 413.697 1733.02 445.683C1769.85 501.15 1700.07 532.753 1665.67 559.2C1626.16 589.562 1593.56 644.951 1628.97 691.927C1642.52 709.89 1659.19 720.596 1665.24 744.037C1674.69 780.699 1667.54 822.594 1659.86 858.833C1648.3 913.312 1629.99 967.201 1605.11 1016.43C1587.29 1051.68 1557.72 1106.97 1514.41 1102.81C1485.26 1100.05 1455.62 1089.94 1427.23 1081C1384.73 1067.64 1342.76 1052.39 1301.01 1036.56C1204.65 1000.12 1109.35 959.931 1015.91 915.726C952.165 885.556 774.34 762.261 760.96 757.862C721.065 744.758 675.705 747.064 634.573 749.096C579.86 751.793 525.421 758.782 471.025 765.258C445.133 768.323 419.109 772.07 393.079 773.579C374.552 774.652 350.22 775.572 333.991 764.146C302.316 741.854 337.606 690.847 352.2 669.267C396.91 603.11 453.466 545.819 506.497 487.241C532.519 458.481 558.94 429.767 582.563 398.7C592.091 386.155 615.974 360.966 605.528 343.785Z" fill="#020F59"/>
<path fill-rule="evenodd" clip-rule="evenodd" d="M628.91 329.518C582.755 273.852 519.051 232.451 464.071 185.96C436.476 162.619 408.707 138.641 384.907 110.839C372.526 96.3822 357.066 78.1 354.681 57.9475C348.306 4.03662 444.028 11.3265 472.679 9.27982C528.071 5.30914 590.647 2.29666 640.901 -25.2145C671.603 -42.0325 686.723 -69.6357 680.985 -105.916C678.441 -122.014 674.48 -135.688 680.985 -151.495C687.577 -167.508 701.309 -178.807 715.215 -187.277C755.176 -211.638 804.837 -219.425 849.829 -225.228C902.609 -231.987 955.785 -234.626 1008.93 -233.123C1055.48 -231.829 1101.8 -246.4 1147.25 -256.005C1207.45 -268.722 1268.74 -279.829 1330.36 -278.151C1379.01 -276.817 1428.05 -266.338 1469.65 -238.49C1511.92 -210.127 1537.32 -167.677 1560.23 -121.867C1594.87 -52.6185 1638.03 40.1791 1714.02 66.4793C1725.07 70.312 1735.37 70.7336 1746.77 71.4004C1752.3 71.7224 1759.45 71.8221 1762.2 77.9467C1768.8 92.695 1744.38 121.287 1737.56 131.252C1715.81 163.063 1692.23 193.442 1669.93 224.832C1649.12 254.136 1626.44 284.676 1613.51 319.016C1592.93 373.709 1658.72 405.69 1656.88 457.807C1655.73 490.163 1626.53 513.366 1603.39 529.417C1574.91 549.155 1533.92 562.133 1519.66 598.153C1509.05 624.982 1525.71 640.597 1538.53 660.956C1560.28 695.45 1561.75 742.209 1559.49 782.138C1556.44 836.095 1544.53 890.849 1524.24 940.449C1515.04 962.928 1503.78 986.311 1487.21 1003.77C1471.67 1020.15 1456.97 1024.34 1436.21 1020.98C1372.67 1010.72 1308.51 982.085 1247.57 956.515C1171.01 924.378 1095.51 888.902 1022.25 848.989C972.3 821.768 921.224 792.969 877.38 755.363C865.954 745.559 854.252 734.904 845.897 721.973C839.58 712.253 836.899 704.228 826.253 698.677C794.697 682.235 750.804 686.535 716.993 688.245C662.93 690.966 609.128 698.21 555.398 704.733C524.045 708.566 464.981 720.623 439.944 691.702C418.334 666.728 444.411 624.146 457.732 602.147C491.426 546.511 534.771 497.682 574.986 447.405C593.415 424.362 612.569 401.144 627.79 375.526C631.678 368.995 637.908 360.34 638.978 352.407C640.178 343.315 634.577 336.379 628.91 329.518Z" fill="#101F78" stroke="#101F78" stroke-width="5"/>
<path fill-rule="evenodd" clip-rule="evenodd" d="M632.879 342.477C590.229 293.258 538.848 252.822 493.061 206.763C472.531 186.113 451.799 164.448 436.157 139.255C427.743 125.708 418.808 108.655 421.128 91.8164C427.786 43.4871 506.514 47.8521 538.32 45.0213C585.58 40.8635 639.875 36.6749 681.665 10.6154C709.04 -6.45331 719.304 -31.6613 714.194 -64.1724C708.707 -99.0462 720.974 -124.361 748.891 -143.816C783.892 -168.188 828.074 -178.122 868.714 -185.18C917.677 -193.642 967.259 -197.393 1016.86 -196.387C1065.1 -195.406 1111.83 -203.982 1159.74 -209.559C1223.29 -216.947 1288.85 -220.591 1351.66 -205.448C1406.36 -192.261 1455.76 -163.201 1492.79 -118.263C1531.48 -71.3604 1550.62 -12.2681 1582.03 39.6208C1601.62 71.9861 1628.93 114.8 1665.55 127.381C1677.75 131.577 1700 125.916 1690.25 146.559C1684.68 158.365 1674.24 168.721 1666.01 178.372C1652.69 193.968 1638.93 209.134 1625.4 224.515C1596.54 257.302 1565.64 290.788 1544.01 329.612C1516.75 378.494 1557.27 416.114 1552.33 465.678C1549.68 492.351 1532.19 513.639 1513.7 530.363C1501.74 541.195 1488.65 550.577 1475.29 559.33C1461.33 568.474 1444.81 575.44 1432.64 587.261C1415.29 604.085 1422.82 623.999 1426.07 645.748C1431.8 683.968 1433.05 722.792 1429.82 761.339C1425.86 808.587 1416.57 857.185 1397 900.121C1389.39 916.837 1379.75 934.557 1365.42 945.764C1351.11 956.971 1336.29 956.208 1319.89 952.829C1271.22 942.86 1222.64 919.652 1176.48 897.659C1118.69 870.126 1062.04 839.357 1007.94 804.353C970.594 780.187 933.128 754.082 901.886 721.318C892.8 711.782 884.154 701.572 877.164 690.172C872.365 682.355 869.791 672.267 862.837 666.391C841.079 648.049 797.395 653.526 771.878 654.593C720.952 656.718 670.829 666.821 619.968 669.276C592.21 670.618 548.736 673.993 528.351 648.916C509.181 625.342 526.544 588.212 538.002 565.498C560.519 520.836 590.771 481.044 617.885 439.527C629.033 422.443 641.249 404.569 648.47 385.061C654.89 367.677 643.807 355.096 632.879 342.477Z" fill="#101F78" stroke="#101F78" stroke-width="5"/>
<path fill-rule="evenodd" clip-rule="evenodd" d="M643.367 343.282C609.42 299.97 568.495 261.523 534.303 217.507C514.289 191.73 479.821 148.395 495.299 112.055C512.28 72.1216 571.472 71.034 605.687 67.8166C646.409 63.9865 694.231 58.7545 729.082 33.8201C740.104 25.9376 749.493 15.5042 753.473 1.7616C757.735 -12.9463 753.075 -25.8156 752.469 -40.5387C751.198 -71.4251 768.576 -96.2221 791.574 -113.251C824.076 -137.327 864.719 -148.71 903.109 -156.646C946.602 -165.597 990.817 -170.01 1035.12 -169.822C1077.47 -169.669 1119.35 -170.665 1161.74 -171.814C1217.16 -173.346 1273.37 -170.871 1327.14 -155.252C1380.11 -139.855 1428.26 -110.998 1466.08 -68.5526C1502.99 -27.1332 1527.89 23.4939 1549.69 75.0632C1562.06 104.333 1582.96 148.074 1612.48 162.859C1625.6 169.439 1638.48 168.986 1624.52 186.1C1606.95 207.648 1583.27 224.938 1562.92 243.368C1533.55 269.965 1503.46 297.083 1478.81 328.704C1463.07 348.897 1456.06 368.492 1457.14 394.637C1457.99 414.554 1461.78 434.264 1459.86 454.257C1455.36 501.185 1420.53 533.366 1389.72 563.333C1369.92 582.606 1351.82 597.307 1341.62 624.722C1329.56 657.126 1324.5 692.379 1316.44 726.023C1307.59 762.969 1297.35 801.4 1278.03 833.942C1260.82 862.913 1239.89 875.905 1208.58 868.099C1159.73 855.935 1111.59 825.968 1068.22 798.245C1024.08 770.039 980.697 738.325 944.12 699.557C924.373 678.62 910.895 654.039 893.358 631.548C871.299 603.312 821.396 614.006 791.74 616.396C742.508 620.364 587.601 650.055 601.895 553.888C607.86 513.747 631.356 476.702 648.54 441.281C655.661 426.58 665.968 408.938 667.579 392.094C669.334 373.747 653.574 356.32 643.367 343.282Z" fill="#020F59" stroke="#020F59" stroke-width="5"/>
<path fill-rule="evenodd" clip-rule="evenodd" d="M661.292 346.96C635.35 307.711 604.304 270.63 582.043 228.239C567.604 200.786 553.423 164.104 572.051 135.056C593.076 102.276 639.436 94.635 673.501 90.4579C708.597 86.1582 750.496 82.5407 779.182 57.6853C788.308 49.768 795.831 39.0916 797.232 26.3075C798.582 14.0446 794.77 1.78171 796.033 -10.7035C798.864 -38.7395 814.885 -61.8398 835.541 -78.5941C896.646 -128.159 987.591 -139.181 1061.31 -140.476C1098.22 -141.12 1136.19 -137.74 1173.33 -135.318C1221.53 -132.176 1269.79 -125.431 1315.76 -109.175C1413.48 -74.624 1478.98 2.00395 1524.73 97.3558C1539.13 127.37 1550.15 159.843 1572.71 183.962C1584.34 196.417 1581.79 205.361 1569.91 216.72C1551.31 234.47 1528.64 248.036 1508.01 262.852C1478.65 283.921 1448.67 305.304 1422.72 330.543C1404.83 347.941 1392.12 364.702 1388.27 390.792C1385.52 409.393 1386.16 428.347 1384.51 447.063C1381.36 482.618 1370.58 517.904 1351.5 547.397C1336.33 570.773 1318.28 592.019 1299.63 612.276C1275.38 638.648 1254.87 665.443 1236.44 696.745C1212.03 738.178 1177.72 814.606 1120.21 794.38C1056.77 772.061 997.309 715.353 956.609 660.408C942.941 641.959 931.721 619.335 913.288 605.73C885.693 585.397 857.694 586.109 824.871 586.194C775.73 586.309 668.8 597.629 667.645 519.515C667.19 488.566 679.812 459.304 685.854 429.535C692.67 396.195 679.01 373.708 661.292 346.96Z" fill="#020F59" stroke="#020F59" stroke-width="5"/>
<path fill-rule="evenodd" clip-rule="evenodd" d="M680.613 350.46C654.954 299.305 597.413 215.248 641.177 158.365C664.294 128.303 705.183 117.007 739.483 110.274C767.086 104.829 800.375 102.784 821.23 79.6997C836.561 62.7274 829.756 38.0273 835.628 16.7813C842.918 -9.55782 859.649 -31.1101 880.209 -47.3089C937.662 -92.5811 1017.55 -106.474 1086.66 -109.431C1158.44 -112.494 1237.52 -98.1648 1305.07 -70.5998C1389.3 -36.2188 1452.39 28.8824 1496.51 111.324C1504.66 126.542 1512.05 142.159 1519.87 157.56C1525.12 167.893 1532.91 177.888 1537.04 188.755C1543.94 206.877 1535.82 221.689 1522.8 233.5C1504.08 250.502 1481.07 262.603 1459.72 275.363C1430.54 292.825 1400.69 309.974 1373.54 330.462C1355.28 344.248 1336.18 359.099 1329.65 383.017C1325.2 399.331 1324.28 416.61 1324.44 433.506C1324.78 469.732 1322.99 499.028 1307.05 532.207C1280.83 586.677 1240.5 635.656 1197.9 676.41C1164.47 708.393 1111.57 758.077 1062.86 736.693C1019.15 717.546 993.584 671.714 964.788 634.661C950.788 616.646 935.061 600.195 916.582 587.382C893.285 571.229 871.352 564.451 843.749 561.808C797.29 557.359 727.238 556.202 712.877 497.075C707.574 475.255 710.601 452.653 707.819 430.549C704.185 401.322 693.559 376.262 680.613 350.46Z" fill="#101F78" stroke="#101F78" stroke-width="5"/>
<path fill-rule="evenodd" clip-rule="evenodd" d="M707.296 352.354C689.023 296.381 665.019 225.84 709.151 176.093C730.528 151.995 760.597 138.523 789.697 128.455C810.54 121.24 843.634 119.117 856.412 96.9342C865.797 80.6104 867.097 58.091 875.587 40.6015C887.254 16.5563 904.926 -3.24892 925.661 -18.7526C979.676 -59.1525 1050.03 -74.7635 1114.19 -79.2337C1253.59 -88.933 1395.44 -11.6831 1470.04 115.413C1492.28 153.298 1520.99 193.622 1485.05 232.327C1445.8 274.551 1386.68 294.334 1339.84 324.337C1321.94 335.792 1299.14 349.562 1289.16 370.303C1283.15 382.771 1282.74 398.413 1282.47 412.137C1281.74 447.093 1279.01 478.529 1265.76 511.147C1245.3 561.553 1212.68 608.057 1175.71 646.148C1143.46 679.364 1097.49 718.4 1050.66 694.454C1014.76 676.051 991.985 636.994 964.09 608.202C933.046 576.137 894.654 554.53 852.493 543.972C811.479 533.728 766.495 526.819 744.88 483.299C737.466 468.37 729.719 449.041 726.939 432.517C722.452 405.274 715.883 378.464 707.296 352.354Z" fill="#101F78" stroke="#101F78" stroke-width="5"/>
<path fill-rule="evenodd" clip-rule="evenodd" d="M737.046 352.748C728.594 296.228 727.654 237.293 766.929 192.746C785.26 171.964 808.43 157.199 831.861 143.822C849.1 133.98 866.902 125.677 879.777 109.54C891.705 94.5997 900.773 77.2522 912.289 61.9205C927.481 41.6026 945.658 24.0141 966.123 9.83093C1017.42 -25.6544 1079.82 -42.2511 1139.52 -48.0081C1168.43 -50.8062 1199.77 -52.2626 1228.48 -44.6351C1256.2 -37.2758 1283.62 -25.639 1309.11 -12.0705C1363.29 16.7455 1410.25 58.9461 1444.29 112.3C1467.64 148.897 1480.27 184.482 1450.03 221.608C1415.96 263.456 1362.52 286.546 1318.47 313.706C1288.26 332.334 1254.41 350.594 1248.77 390.18C1244.27 421.68 1240.62 451.576 1229 481.351C1211.7 525.268 1186.26 565.051 1154.19 598.34C1124.86 628.665 1087.77 654.4 1045.82 638.202C1012.58 625.346 986.794 596.545 957.757 575.955C925.396 552.957 889.841 540.278 852.402 530.083C818.754 520.883 787.072 506.748 765.326 476.736C760.875 470.603 756.2 463.926 752.768 457.065C748.389 448.311 748.73 439.633 747.87 429.821C745.63 403.925 740.868 378.329 737.046 352.748Z" fill="#020F59" stroke="#020F59" stroke-width="5"/>
<path fill-rule="evenodd" clip-rule="evenodd" d="M769.85 348.128C770.572 294.442 782.74 243.704 816.069 201.866C830.317 183.968 847.331 169.226 863.009 152.825C875.633 139.604 887.563 127.318 902.079 116.423C936.511 90.6242 964.495 57.2394 1001.09 34.2662C1049.94 3.5534 1105.89 -13.4231 1161.4 -20.2106C1188.52 -23.5276 1216.52 -24.687 1243.95 -20.9401C1267.51 -17.7229 1290.07 -6.42824 1311 5.12745C1352.02 27.7628 1391.84 59.9345 1418.48 100.637C1477.19 190.372 1361.43 255.613 1302.01 293.82C1274.68 311.395 1232.92 331.751 1221.73 366.564C1213.72 391.433 1208.85 416.726 1198.55 440.827C1170.87 505.554 1114.68 581.683 1039.8 571.548C1007.75 567.218 978.549 549.627 948.637 537.818C917.836 525.656 886.046 518.876 854.033 511.436C824.114 504.487 800.268 494.597 780.943 468.084C771.705 455.423 772.522 440.266 771.699 424.734C770.355 399.219 769.525 373.558 769.85 348.128Z" fill="#010937" stroke="#010937" stroke-width="5"/>
<path fill-rule="evenodd" clip-rule="evenodd" d="M799.72 341.252C811.75 260.217 856.429 171.751 922.126 124.691C999.404 69.3322 1083.12 22.7161 1175.45 9.31514C1218.26 3.10115 1265.16 0.0439711 1305.54 20.3638C1336.29 35.8182 1372 58.9194 1388.91 91.4066C1430.3 170.87 1338.24 234.128 1285.79 270.891C1257.55 290.682 1221.6 309.968 1200.32 338.869C1187.97 355.626 1181.66 377.792 1171.69 396.196C1141.48 451.969 1091.75 496.952 1029.8 504.998C1001.15 508.714 972.3 504.117 943.873 500.462C914.773 496.723 885.313 494.692 856.393 489.475C833.309 485.307 806.104 478.25 797.602 452.038C786.88 419.006 794.811 374.344 799.72 341.252Z" fill="#020F59" stroke="#020F59" stroke-width="5"/>
<path fill-rule="evenodd" clip-rule="evenodd" d="M829.011 328.234C846.556 252.048 883.709 177.733 946.167 132.252C979.288 108.135 1017.74 91.4869 1054.65 75.0382C1096.49 56.3962 1140.22 41.9259 1184.86 34.7483C1240.46 25.8069 1330.5 17.7473 1359.54 84.961C1388.38 151.676 1315.53 210.723 1272.45 244.373C1244.83 265.928 1215.27 285.713 1188.88 309.278C1174.56 322.053 1163.54 336.815 1151.44 351.799C1117.97 393.316 1070.25 426.183 1021.62 443.728C974.482 460.737 916.172 468.268 866.417 462.646C844.949 460.231 829.605 452.08 823.111 428.906C814.115 396.69 821.758 359.706 829.011 328.234Z" fill="#010937" stroke="#010937" stroke-width="5"/>
<path fill-rule="evenodd" clip-rule="evenodd" d="M858.117 307.715C875.546 240.636 913.14 179.369 967.978 139.109C1029.45 93.9779 1108.6 68.8995 1181.35 56.1466C1220.02 49.373 1303.82 31.0074 1323.53 83.5692C1343.24 136.131 1286.26 187.929 1253.47 216.444C1213.66 250.998 1170.75 284.362 1127.88 315.366C1090.65 342.323 1050.9 369.883 1010.57 390.701C987.816 402.51 964.117 412.152 939.751 419.513C921.707 424.919 898.764 432.984 879.847 428.959C832.134 418.795 849.781 339.788 858.117 307.715Z" fill="#020F59" stroke="#020F59" stroke-width="5"/>
<path fill-rule="evenodd" clip-rule="evenodd" d="M894.044 287.627C932.286 160.774 1053.45 98.3853 1170.11 76.6389C1197.23 71.5911 1273.22 53.3915 1288.37 92.1423C1303.06 129.713 1256.36 174.271 1234.49 195.381C1166.75 260.795 1083.04 309.297 1003.73 357.347C978.971 372.345 934.321 404.892 903.611 389.879C870.268 373.548 886.121 313.932 894.044 287.627Z" fill="#010937" stroke="#010937" stroke-width="5"/>
<path fill-rule="evenodd" clip-rule="evenodd" d="M933.216 263.212C966.473 169.793 1063.21 116.215 1152.14 98.552C1173.93 94.2301 1229.25 80.7736 1245.75 106.843C1261.01 130.958 1224.58 165.901 1210.95 179.786C1180.6 210.706 1144.64 236.178 1109.1 260.66C1076.26 283.312 1043.04 306.53 1008.48 325.687C990.269 335.772 956.122 357.289 935.431 341.718C913.155 324.967 925.831 283.955 933.216 263.212Z" fill="#101F78" stroke="#101F78" stroke-width="5"/>
<path fill-rule="evenodd" clip-rule="evenodd" d="M976.382 235.919C1001.73 174.913 1069.62 135.298 1129.51 122.133C1145.62 118.598 1180.45 109.429 1194.05 125.721C1206.56 140.725 1186.39 162.722 1177.44 172.881C1137.76 217.909 1079.67 258.129 1026.43 282.833C1013.05 289.043 988.992 301.233 975.224 288.698C961.101 275.825 970.56 249.926 976.382 235.919Z" fill="#020F59" stroke="#020F59" stroke-width="5"/>
<path fill-rule="evenodd" clip-rule="evenodd" d="M1022.18 210.292C1036.46 179.999 1073.79 157.144 1104.71 149.869C1126.48 144.753 1152.63 149.172 1133.67 175.541C1114.83 201.709 1079.86 225.609 1050.24 236.205C1027.63 244.285 1009.91 236.313 1022.18 210.292Z" fill="#010937" stroke="#010937" stroke-width="5"/>
<path fill-rule="evenodd" clip-rule="evenodd" d="M-136.126 420.106C-137.042 360.259 -167.014 298.058 -152.212 237.077C-140.058 186.992 -78.8659 182.811 -42.1567 160.12C-12.9855 142.093 3.56934 110.158 19.3451 79.5177C33.5196 52.0097 46.2513 23.6745 61.1831 -3.38179C70.8492 -20.873 87.4473 -55.2198 108.409 -55.8401C128.477 -56.4375 146.879 -29.6722 158.536 -13.8504C173.735 6.77294 187.21 28.7595 201.968 49.7122C226.84 85.0546 256.682 111.215 290.852 135.973C329.738 164.146 369.265 191.355 409.434 217.602C439.009 236.985 468.786 256.222 497.214 277.52C515.046 290.883 554.403 315.956 554.584 340.592C554.669 352.347 544.174 365.366 537.097 374.763C525.123 390.669 511.475 405.211 497.784 419.44C472.285 445.945 445.703 471.247 419.41 496.856C385.284 530.093 352.685 562.786 322.685 600.518C291.667 639.574 262.034 679.917 231.796 719.709C211.317 746.666 190.859 776.939 161.32 793.48C124.322 814.157 93.9538 792.354 56.5377 792.102C24.3513 791.879 26.7245 712.725 22.6345 690.716C18.5301 668.438 9.48436 647.699 5.97864 625.368C1.60728 597.493 1.54956 568.974 0.474762 540.799C-0.830872 506.337 -1.35023 473.53 -36.0541 460.388C-55.8045 452.922 -77.1707 451.352 -97.6136 446.879C-110.858 443.977 -135.838 439.014 -136.126 420.106Z" fill="#010937" stroke="#010937" stroke-width="5"/>
<path fill-rule="evenodd" clip-rule="evenodd" d="M-120.302 409.461C-123.676 359.292 -143.608 295.082 -124.76 243.296C-108.657 199.041 -58.2955 193.304 -24.3843 170.057C3.61015 150.883 16.0722 119.506 30.0658 88.6809C41.2925 63.9536 52.1796 38.9885 64.9234 15.0513C74.3151 -2.58913 88.6555 -32.3708 108.183 -36.0215C125.738 -39.3042 144.565 -13.0123 154.419 0.363724C168.796 19.8909 181.091 41.0978 193.792 61.8597C216.108 98.3295 238.958 131.126 271.62 157.916C304.426 184.821 340.316 204.939 376.59 225.877C404.967 242.26 433.201 259.118 460.162 278.032C480.246 292.113 509.122 310.137 518.311 335.248C525.586 355.112 488.691 388.077 477.811 399.712C455.415 423.634 431.683 446.091 407.908 468.41C378.924 495.606 349.015 519.391 323.419 550.415C277.638 605.882 239.37 674.956 180.462 716.181C144.934 741.047 105.394 747.404 65.877 743.685C50.229 742.212 46.4724 718.765 44.5001 705.09C41.2202 682.372 40.8085 659.264 38.2872 636.454C35.9248 615.101 30.6799 594.815 26.4536 573.876C22.1768 552.662 20.9775 530.926 17.8277 509.566C15.8772 496.305 13.9482 480.873 5.41624 470.212C-3.41194 459.175 -17.9763 454.55 -30.7056 451.038C-54.6111 444.504 -117.919 444.864 -120.302 409.461Z" fill="#020F59"/>
<path fill-rule="evenodd" clip-rule="evenodd" d="M-99.9368 388.459C-105.611 342.409 -113.555 285.053 -90.4392 242.625C-71.5453 207.935 -31.2493 200.451 -2.46751 177.847C21.4716 159.051 30.5138 129.154 42.3965 101.372C52.1471 78.585 61.9483 55.6978 73.766 34.0131C82.7287 17.5677 94.279 -4.72993 112.074 -10.4671C127.289 -15.3693 144.478 6.59125 152.912 17.5217C167.274 36.1502 178.984 57.0228 190.613 77.6198C209.638 111.323 227.144 147.323 254.22 174.737C280.529 201.339 311.783 217.042 343.622 234.698C368.01 248.224 392.245 262.273 415.223 278.404C432.867 290.782 454.731 305.451 463.925 326.048C471.876 343.811 451.464 364.836 441.266 377.368C424.425 398.049 405.733 417.023 387.302 436.072C367.41 456.623 345.379 475.58 326.131 496.638C285.655 540.949 253.316 590.01 203.428 623.957C171.12 645.948 127.643 665.925 89.4507 662.333C61.9844 659.744 63.7914 595.233 61.1531 574.621C56.8164 540.918 48.4391 505.508 35.1325 474.463C23.705 447.86 -3.4505 439.657 -28.4304 433.69C-44.079 429.944 -60.4793 427.922 -75.6146 422.131C-93.1353 415.422 -97.5588 407.762 -99.9368 388.459Z" fill="#010937" stroke="#010937" stroke-width="5"/>
<path fill-rule="evenodd" clip-rule="evenodd" d="M-80.9402 366.874C-84.3186 327.941 -83.559 281.901 -61.6757 248.222C-42.4981 218.723 -8.35312 210.957 15.9318 187.718C34.8851 169.589 42.3291 140.027 52.522 116.052C64.979 86.736 82.435 32.5922 113.86 21.5606C143.093 11.3049 173.664 76.8184 184.248 96.3542C201.002 127.275 215.015 161.184 235.335 189.738C252.835 214.322 276.28 227.911 301.166 242.515C332.895 261.168 381.066 283.284 398.031 319.636C410.676 346.723 369.557 386.993 355.515 405.76C340.83 425.366 329.77 448.604 314.614 467.518C290.698 497.363 251.945 521.392 219.948 539.73C188.841 557.568 148.446 577.311 113.159 576.135C89.9657 575.368 85.5529 537.356 80.6048 518.789C73.5153 492.392 64.0893 468.739 43.841 450.786C23.2311 432.51 -1.06114 423.899 -26.5975 416.362C-39.7057 412.521 -54.6586 409.525 -66.3852 401.766C-79.3414 393.324 -79.638 381.839 -80.9402 366.874Z" fill="#101F78" stroke="#101F78" stroke-width="5"/>
<path fill-rule="evenodd" clip-rule="evenodd" d="M-57.7944 344.433C-57.6069 310.798 -50.3602 274.93 -28.8724 248.985C-10.9755 227.374 17.0378 220.15 34.1704 198.058C47.7409 180.568 54.6487 156.013 63.7341 135.702C74.8457 110.812 90.5578 67.3307 118.188 58.6925C145.156 50.2836 169.01 98.1759 179.35 117.127C194.492 144.914 206.751 174.367 222.029 202.078C233.999 223.82 248.637 237.832 268.127 251.844C291.007 268.302 322.928 286.534 335.151 313.763C343.962 333.479 322.633 364.981 314.889 382.349C309.697 394.014 304.945 405.863 302.335 418.507C300.302 428.353 300.099 437.466 294.209 445.92C279.376 467.187 246.856 469.962 224.792 476.972C195.488 486.275 164.394 496.847 133.727 498.865C114.879 500.127 105.26 481.696 94.5019 468.731C81.7895 453.404 63.7918 442.38 48.0726 430.815C27.3275 415.526 4.75089 406.017 -18.6045 396.277C-29.1392 391.882 -41.5126 387.57 -49.6752 378.832C-58.1981 369.775 -57.8593 356.573 -57.7944 344.433Z" fill="#020F59" stroke="#020F59" stroke-width="5"/>
<path fill-rule="evenodd" clip-rule="evenodd" d="M-33.4845 324.465C-29.76 296.216 -18.1533 269.217 1.45076 249.246C16.4786 233.915 36.4365 225.282 48.4978 206.861C59.7362 189.689 67.5678 170.164 76.8501 151.804C86.6738 132.393 101.269 99.9511 123.926 94.6695C148.345 88.9811 167.155 121.707 177.571 139.845C190.729 162.766 200.726 187.428 212.491 211.139C221.355 228.812 232.661 244.975 246.033 259.089C260.058 273.969 279.078 288.22 286.173 308.681C292.444 326.804 280.708 348.728 278.637 367.103C276.421 386.736 280.305 407.358 268.019 424.215C242.684 458.98 179.101 452.533 142.751 453.277C106.884 454.043 78.0483 432.771 49.0247 412.532C29.8536 399.17 9.88861 387.855 -9.76604 375.405C-29.8032 362.703 -36.7614 349.326 -33.4845 324.465Z" fill="#101F78" stroke="#101F78" stroke-width="5"/>
<path fill-rule="evenodd" clip-rule="evenodd" d="M-10.8981 308.297C0.116017 267.372 34.5162 245.62 59.1085 214.692C79.23 189.373 94.3176 136.94 128.205 130.004C166.678 122.132 189.71 191.605 203.087 218.413C217.929 248.144 244.363 272.327 255.355 303.8C261.133 320.319 256.171 335.733 253.095 352.244C249.721 370.374 247.187 388.911 235.544 403.504C212.627 432.222 167.871 432.022 135.636 432.812C102.269 433.633 72.7515 413.954 46.1659 394.312C17.9698 373.512 -22.1795 350.264 -10.8981 308.297Z" fill="#101F78" stroke="#101F78" stroke-width="5"/>
<path fill-rule="evenodd" clip-rule="evenodd" d="M7.54941 297.199C19.9603 268.041 46.0406 244.336 67.2031 221.959C84.8664 203.303 103.868 165.749 130.799 163.072C162.452 159.914 181.636 200.017 194.09 224.605C206.349 248.768 224.012 274.28 230.8 300.799C237.878 328.423 219.028 365.628 201.053 385.175C181.003 406.973 148.201 415.027 120.055 414.158C90.5844 413.273 63.5438 395.258 41.2246 376.572C17.3632 356.598 -6.88386 331.047 7.54941 297.199Z" fill="#010937" stroke="#010937" stroke-width="5"/>
<path fill-rule="evenodd" clip-rule="evenodd" d="M24.6669 291.709C36.5218 267.458 57.0715 246.943 76.019 228.643C90.6412 214.516 112.218 190.493 133.313 189.905C156.521 189.256 176.19 209.42 185.415 230.087C194.51 250.473 204.093 276.031 205.455 298.395C208.412 347.097 148.219 401.651 103.02 397.212C60.1662 393.002 1.02977 340.029 24.6669 291.709Z" fill="#010937" stroke="#010937" stroke-width="5"/>
<path fill-rule="evenodd" clip-rule="evenodd" d="M40.4974 289.036C56.8519 257.438 96.5775 212.391 133.355 211.322C175.57 210.098 186.168 260.227 180.665 296.555C175.075 333.631 126.404 387.297 87.596 380.046C49.7191 372.97 21.115 326.509 40.4974 289.036Z" fill="#101F78" stroke="#101F78" stroke-width="5"/>
<path fill-rule="evenodd" clip-rule="evenodd" d="M57.212 283.926C71.0589 257.47 100.607 224.425 131.426 223.424C168.146 222.241 167.453 264.563 159.126 290.905C150.468 318.255 112.332 364.967 80.1794 357.592C48.914 350.392 43.9423 309.283 57.212 283.926Z" fill="#101F78" stroke="#101F78" stroke-width="5"/>
<path fill-rule="evenodd" clip-rule="evenodd" d="M71.77 280.882C80.9099 262.004 103.785 238.144 125.531 237.381C152.111 236.463 146.944 270.031 140.077 286.233C131.914 305.512 104.552 339.01 81.5902 333.582C58.9829 328.238 64.2295 296.436 71.77 280.882Z" fill="#010937" stroke="#010937" stroke-width="5"/>
<path fill-rule="evenodd" clip-rule="evenodd" d="M1322.15 1359.49C1263.32 1397.37 1196.81 1428.62 1134.09 1460.4C1042.43 1506.83 949.43 1552.02 853.125 1586.61C801.492 1605.15 734.586 1631.88 679.184 1617.35C658.928 1612.05 640.455 1595.99 622.293 1585.55C597.25 1571.16 571.838 1557.49 546.469 1543.79C495.579 1516.31 444.532 1489.12 394.517 1459.88C370.433 1445.81 347.065 1428.07 321.992 1416.06C307.34 1409.03 289.806 1412.32 274.15 1412.76C237.884 1413.8 201.64 1415.76 165.396 1417.43C121.064 1419.47 76.6304 1421.63 32.2478 1420.83C12.2301 1420.46 -36.796 1424.23 -47.8158 1405.94C-53.7446 1396.08 -39.7713 1378.32 -33.2937 1370.1C-21.4001 1355 -7.72985 1341.38 5.75971 1327.9C36.9562 1296.73 70.0878 1267.06 97.8181 1232.25C112.066 1214.36 130.733 1192.49 121.432 1168.06C112.044 1143.39 95.7816 1122.02 85.8594 1097.42C74.4351 1069.13 69.6979 1039.68 64.3035 1009.67C60.31 987.493 51.009 967.843 42.2638 947.402C32.6016 924.799 22.5927 902.007 15.884 878.175C11.45 862.432 4.2937 834.11 19.8053 824.143C41.845 809.971 83.173 821.446 108.296 825.622C143.016 831.383 177.484 838.722 212.111 845.042C237.248 849.639 262.473 854.679 288.029 855.215C329.228 856.081 370.563 853.085 411.653 850.298C487.737 845.133 563.276 838.132 639.618 838.132C706.501 838.132 861.062 920.233 897.242 934.687C969.455 963.543 1043.59 990.9 1111.93 1029.3C1130.41 1039.69 1158.87 1053.55 1168.59 1074.94C1174.59 1088.13 1171.83 1095.75 1185.98 1104.25C1205.3 1115.84 1230.04 1120.39 1251.41 1125.57C1285.84 1133.92 1320.53 1141 1355.11 1148.56C1425.06 1163.81 1494.53 1181.06 1564.18 1197.67C1585.24 1202.68 1610.72 1203.79 1630.8 1212.63C1643.74 1218.31 1642.39 1225.45 1632.38 1234.08C1614.81 1249.22 1590.19 1257.62 1569.43 1266.26C1539.02 1278.91 1508.11 1290.19 1477.2 1301.31C1446.26 1312.44 1415.18 1323.22 1384.25 1334.36C1363.82 1341.7 1340.51 1347.67 1322.15 1359.49Z" fill="#010937"/>
<path fill-rule="evenodd" clip-rule="evenodd" d="M1273.73 1351.16C1211.5 1389.11 1142.42 1419.34 1075.83 1448.84C990.595 1486.62 903.435 1522.02 813.632 1545.64C760.905 1559.49 698.693 1574.79 644.817 1558.9C625.597 1553.23 611.238 1540.49 594.762 1529.24C575.982 1516.41 556.481 1504.65 536.978 1493.07C496.833 1469.24 456.265 1446.23 415.272 1424.03C393.56 1412.21 369.659 1396.41 345.13 1392.31C325.629 1389.05 303.475 1393.76 283.887 1395.14C248.61 1397.61 213.34 1400.16 178.049 1402.32C137.326 1404.81 96.4873 1407.11 55.6777 1406.71C32.9325 1406.49 -6.11479 1410.17 -22.2003 1394.57C-36.2344 1380.97 14.8606 1331.74 23.8459 1322.39C51.9071 1293.19 81.4202 1265.38 107.538 1234.16C122.974 1215.75 141.768 1193.36 148.276 1168.95C153.816 1148.15 143.125 1124.46 136.813 1105.23C128.918 1081.15 122.548 1056.19 113.375 1032.61C105.205 1011.6 92.2039 992.892 80.7844 973.801C68.2238 952.792 55.5042 931.438 46.1794 908.527C40.466 894.427 31.0112 870.813 42.3656 857.372C55.4825 841.875 95.9167 852.002 112.537 854.211C146.254 858.753 179.71 865.504 213.196 871.549C268.813 881.584 321.836 890.361 378.471 888.259C452.225 885.512 525.906 879.052 599.645 875.478C626.876 874.142 654.539 871.457 681.792 872.908C697.415 873.743 709.312 878.807 718.398 890.23C730.807 905.819 759.388 914.45 779.265 923.395C810.259 937.33 841.643 950.297 872.939 963.431C941.645 992.278 1011.67 1020.08 1076.82 1057.39C1097.44 1069.19 1121.05 1082.35 1136.3 1101.84C1144.81 1112.71 1142.66 1123.18 1147.85 1134.73C1154.73 1149.93 1177.33 1156.79 1190.85 1161.76C1216.94 1171.37 1244.09 1177.8 1271.02 1183.83C1331.99 1197.48 1393.1 1206.44 1455.04 1213.05C1469.56 1214.59 1526.73 1219.9 1496.7 1245.52C1463.53 1273.85 1415.63 1287.72 1376.58 1303.68C1341.4 1318.02 1306.18 1331.37 1273.73 1351.16Z" fill="#020F59" stroke="#020F59" stroke-width="5"/>
<path fill-rule="evenodd" clip-rule="evenodd" d="M1187.73 1344.14C1129.23 1377.53 1064.43 1402.44 1001.43 1426.27C924.979 1455.18 846.613 1480.96 766.43 1495.39C716.062 1504.46 660.53 1511.42 610.5 1496.36C576.336 1486.08 549.907 1458.29 519.9 1439.17C489.892 1420.05 458.67 1402.1 426.515 1387.15C406.558 1377.87 385.09 1368.51 362.884 1369.74C308.892 1372.71 254.966 1379.79 200.916 1383.24C165.16 1385.54 129.331 1387.43 93.4676 1386.86C71.8404 1386.52 42.1293 1387.9 22.9824 1375.83C1.81804 1362.48 114.509 1248.48 125.159 1235.65C151.863 1203.48 184.199 1160.79 179.036 1115.04C174.098 1071.3 152.695 1038.64 128.486 1004.38C114.747 984.877 70.6907 932.807 87.0177 907.45C96.3453 892.958 127.091 897.975 141.696 898.962C170.482 900.908 199.108 905.09 227.742 908.721C269.492 913.983 312.392 922.11 354.323 924.492C383.52 926.147 412.892 923.933 442.14 923.887C484.079 923.826 526.016 924.163 567.955 924.561C603.169 924.898 638.678 924.561 673.769 928.146C695.584 930.352 712.142 935.311 727.79 949.31C741.406 961.486 761.948 968.616 779.301 976.36C807.964 989.15 837.003 1001 865.947 1013.04C926.548 1038.25 987.843 1062.95 1045.85 1094.46C1072.33 1108.83 1116.84 1128.96 1123.05 1163.82C1125.3 1176.39 1126.95 1181.82 1138.51 1188.97C1154.94 1199.11 1174.6 1203.68 1193.03 1207.65C1235.98 1216.92 1280.18 1215.54 1323.06 1224.7C1340.52 1228.48 1363.31 1236.63 1343.38 1255.28C1320.11 1277.11 1286.26 1289.1 1258.39 1302.58C1244.47 1309.31 1230.15 1315.6 1216.94 1323.82C1206.79 1330.14 1198.1 1338.26 1187.73 1344.14Z" fill="#010937" stroke="#010937" stroke-width="5"/>
<path fill-rule="evenodd" clip-rule="evenodd" d="M1076.93 1333.72C1022.89 1360.83 964.198 1380.55 906.559 1398.33C842.539 1418.04 776.973 1434.38 710.541 1441.32C664.67 1446.13 615.795 1447.56 571.274 1432.82C543.118 1423.5 524.03 1403.9 499.802 1387.46C463.237 1362.61 423.675 1342.93 379.745 1347.72C330.496 1353.08 281.084 1357.1 231.511 1359.78C201.609 1361.4 171.591 1362.62 141.652 1361.48C122.724 1360.78 98.3368 1359.58 81.8696 1350.49C59.8363 1338.31 142.599 1245.59 152.915 1232.07C178.5 1198.56 197.256 1163.39 208.214 1121.87C217.152 1087.99 198.894 1061.35 180.06 1036.01C168.349 1020.27 130.513 980.679 142.36 960.238C148.858 948.966 170.27 949.552 181.771 948.975C203.689 947.886 225.7 949.022 247.617 949.524C279.981 950.288 314.432 945.01 346.522 949.264C417.639 958.656 488.577 966.801 560.134 973.242C599.58 976.789 639.265 980.009 678.358 986.851C692.391 989.308 706.888 991.915 720.186 997.472C728.741 1001.04 733.405 1007.12 740.624 1012.11C775.046 1035.87 819.979 1048.09 858.746 1063.32C910.285 1083.56 962.098 1103.48 1012.26 1127.39C1038.65 1139.96 1075.51 1154.42 1093.66 1180.08C1099.15 1187.84 1096.81 1194.05 1100.26 1201.5C1104.23 1210.1 1116.3 1212.66 1124.08 1215.05C1141.77 1220.5 1215.77 1228.73 1181.67 1260.66C1165.4 1275.87 1144.66 1285.63 1126.32 1297.59C1119.67 1301.92 1113.19 1306.28 1107.66 1312.11C1098.4 1321.91 1089.28 1327.5 1076.93 1333.72Z" fill="#101F78" stroke="#101F78" stroke-width="5"/>
<path fill-rule="evenodd" clip-rule="evenodd" d="M958.884 1321.97C852.195 1365.85 727.16 1395.74 610.842 1389.95C572.16 1388.01 530.542 1381.56 497.012 1359.49C477.241 1346.45 461.441 1331.73 437.692 1327.02C420.547 1323.63 402.085 1327.48 384.839 1328.88C359.86 1330.91 334.866 1332.71 309.85 1334.17C278.837 1335.96 247.722 1337.35 216.652 1336.61C194.45 1336.08 163.792 1336.68 144.505 1324.02C121.48 1308.93 180.091 1238.11 188.338 1225.5C208.325 1194.91 222.338 1165.28 227.402 1128.43C228.892 1117.69 233.913 1106.68 233.261 1095.86C232.581 1084.8 226.165 1074.96 220.24 1066.27C212.492 1054.89 185.61 1027.86 193.308 1013.98C197.561 1006.31 213.527 1005.34 221.802 1003.72C237.328 1000.65 253.076 998.998 268.695 996.559C295.194 992.399 321.504 978.864 348.097 979.246C419.607 980.261 492.15 1003.79 562.228 1016.71C603.889 1024.42 645.833 1031.42 686.988 1041.85C700.01 1045.17 713.422 1048.58 725.799 1054.2C734.437 1058.11 739.986 1065.08 747.987 1069.45C778.667 1086.27 813.948 1096.48 846.892 1107.81C889.66 1122.54 932.573 1136.82 975.045 1152.49C1001.67 1162.32 1035.9 1170.97 1058.84 1189.2C1075.59 1202.5 1064.14 1206.48 1055.3 1218.88C1050.79 1225.2 1051.83 1231.43 1049.87 1238.58C1047.07 1248.8 1039.15 1256.15 1031.73 1262.77C1021.5 1271.9 1007.86 1279.42 999.489 1290.63C996.538 1294.57 996.676 1299.46 994.288 1302.9C987.343 1312.9 968.918 1317.85 958.884 1321.97Z" fill="#020F59" stroke="#020F59" stroke-width="5"/>
<path fill-rule="evenodd" clip-rule="evenodd" d="M845.451 1306.34C758.861 1333.93 662.515 1349.63 570.985 1342.35C539.139 1339.8 507.098 1333.9 477.433 1320.95C463.936 1315.06 453.805 1308.51 439.016 1308.16C404.701 1307.35 370.277 1310.19 335.969 1310.87C311.416 1311.37 286.741 1311.54 262.246 1309.45C245.868 1308.05 223.721 1306.38 210.304 1295.72C190.806 1280.2 226.003 1227.43 233.166 1212.86C245.038 1188.67 256.816 1161.8 252.108 1133.82C250.663 1125.27 248.107 1117.71 247.775 1108.99C247.457 1101.49 248.345 1094.57 245.839 1087.4C242.742 1078.52 228.964 1064.72 233.7 1056.55C236.928 1050.96 246.504 1050.7 252.873 1048.91C263.204 1046.01 273.29 1042.21 283.029 1037.54C293.283 1032.6 302.014 1024.97 312.636 1020.88C329.881 1014.27 349.183 1013.65 367.309 1013.68C439.63 1013.8 512.868 1028.94 583.355 1044.77C620.061 1053.01 656.969 1061.79 692.642 1074.29C703.473 1078.09 715.75 1081.91 725.275 1088.92C731.218 1093.28 735.248 1098.76 741.999 1102.04C799.676 1130.08 866.357 1140.49 927.586 1160.74C943.524 1166.01 1031.85 1192.64 985.667 1217.7C957.612 1232.92 927.969 1239.84 902.37 1260.66C894.57 1266.99 889.371 1272.24 886.323 1281.9C884.316 1288.33 889.148 1285.06 882.403 1291.78C874.221 1299.86 855.54 1303.13 845.451 1306.34Z" fill="#101F78" stroke="#101F78" stroke-width="5"/>
<path fill-rule="evenodd" clip-rule="evenodd" d="M755.417 1290.03C654.039 1312.55 546.68 1313.62 443.702 1293.65C417.743 1288.63 390.726 1289.83 364.447 1288.55C338.914 1287.33 293.518 1289.87 274.974 1269.04C261.527 1253.94 276.117 1221.85 281.165 1204.95C287.596 1183.43 293.214 1161.21 282.657 1140.31C276.473 1128.06 268 1116.41 261.367 1104.28C258.195 1098.49 251.664 1089.61 254.387 1084.13C258.891 1075.08 279.963 1071.28 290.188 1067C322.867 1053.36 357.473 1049.89 392.413 1049.98C456.947 1050.16 521.814 1059.52 585.117 1072.22C614.241 1078.06 643.771 1084.3 671.86 1094.46C687.754 1100.21 699.478 1111.29 714.656 1117.87C763.527 1139.04 816.034 1150.35 865.745 1169.72C880.133 1175.33 933.878 1194 906.803 1216C880.59 1237.31 842.356 1234.78 815.1 1254.82C812.014 1257.12 808.199 1259.86 806.41 1263.58C805.353 1265.79 807.214 1270.02 806.41 1271.28C798.04 1285 768.285 1287.17 755.417 1290.03Z" fill="#020F59" stroke="#020F59" stroke-width="5"/>
<path fill-rule="evenodd" clip-rule="evenodd" d="M689.736 1275.15C637.726 1282.72 584.573 1284.6 531.687 1285.07C502.781 1285.33 471.019 1287.29 442.734 1279.52C425.359 1274.74 408.578 1270.55 390.667 1267.53C371.396 1264.29 340.367 1261.93 328.631 1244.34C319.863 1231.19 325.873 1204.16 326.191 1188.18C326.531 1170.65 323.144 1157.65 311.48 1145.11C304.146 1137.21 270.504 1108.53 274.392 1100.26C278.091 1092.39 301.533 1091.18 311.669 1089.13C343.704 1082.64 376.166 1080.38 408.752 1080.73C459.219 1081.27 509.874 1086.73 559.554 1096.12C580.092 1100.01 601.319 1104.05 620.938 1111.84C634.15 1117.1 645.169 1126.42 658.294 1131.85C695.883 1147.42 735.627 1158 773.347 1173.86C785.451 1178.96 824.893 1192.54 815.437 1213.46C807.553 1230.92 780.738 1236.24 767.562 1247.95C745.149 1267.92 718.318 1271 689.736 1275.15Z" fill="#020F59" stroke="#020F59" stroke-width="5"/>
<path fill-rule="evenodd" clip-rule="evenodd" d="M656.972 1265.11C615.714 1270.12 573.499 1272.31 531.635 1272.42C504.619 1272.49 476.116 1272.88 449.604 1266.44C436.286 1263.21 424.714 1255.64 412.11 1250.25C399.132 1244.7 381.222 1238.51 375.612 1225.79C370.341 1213.83 372.31 1196.4 367.68 1181.99C363.564 1169.2 354.948 1161.3 345.667 1152.66C339.755 1147.13 309.392 1123.22 312.904 1117.94C316.668 1112.29 334.903 1112.75 344.391 1111.96C370.535 1109.78 396.769 1109.08 422.984 1109.87C458.761 1111.03 494.812 1114.28 529.97 1121.64C554.91 1126.85 573.721 1139.27 596.975 1148.37C627.099 1160.19 658.305 1169.54 688.141 1182.47C703.009 1188.92 725.014 1197.2 732.629 1213.83C735.556 1220.21 738.397 1236.43 735.138 1242.8C731.223 1250.46 716.651 1253.71 709.772 1255.68C692.54 1260.59 674.507 1262.98 656.972 1265.11Z" fill="#101F78" stroke="#101F78" stroke-width="5"/>
</svg>
