<svg width="397" height="799" viewBox="0 0 397 799" fill="none" xmlns="http://www.w3.org/2000/svg">
<mask id="mask0_43_185" style="mask-type:luminance" maskUnits="userSpaceOnUse" x="-813" y="-65" width="1713" height="1117">
<path d="M900 -65H-813V1052H900V-65Z" fill="white"/>
</mask>
<g mask="url(#mask0_43_185)">
<path fill-rule="evenodd" clip-rule="evenodd" d="M-226.472 283.216C-226.588 256.928 -272.704 227.365 -292.403 212.124C-331.354 181.978 -371.864 154.141 -411.998 125.858C-452.134 97.5756 -492.377 69.3705 -530.648 38.3206C-555.497 18.1646 -584.696 -4.53641 -601.549 -33.3171C-637.451 -94.6505 -524.256 -85.5424 -494.934 -86.884C-420.342 -90.311 -334.785 -88.747 -264.867 -120.686C-223.128 -139.753 -206.484 -171.731 -215.449 -218.337C-218.338 -233.494 -226.892 -250.936 -219.646 -265.702C-211.909 -281.472 -194.11 -290.572 -179.338 -296.675C-125.456 -318.908 -63.5056 -321.484 -6.49591 -324.274C54.9772 -327.341 117.03 -326.444 178.07 -326.682C203.953 -326.782 230.984 -336.649 255.631 -344.668C287.945 -355.179 319.871 -366.986 351.915 -378.401C422.416 -403.456 495.058 -429.845 569.637 -436.208C616.349 -440.195 667.396 -434.805 703.68 -400.129C721.902 -382.718 731.43 -356.835 741.965 -333.842C754.716 -306.066 766.964 -278.022 780.529 -250.683C824.264 -162.63 886.681 -76.5878 988.016 -72.2637C1003.34 -71.6121 1018.4 -73.7357 1033.66 -74.1344C1043.37 -74.3797 1052.02 -71.888 1055.63 -61.101C1064.7 -34.0453 1036.16 8.66556 1024.46 30.1321C998.84 77.1215 969.944 122.002 942.879 168.048C924.967 198.5 893.972 240.114 893.651 277.114C893.362 310.08 934.678 333.909 957.172 350.146C978.252 365.349 1016.44 386.625 1018.75 417.552C1019.88 432.548 1010.56 444.976 1000.83 454.62C983.776 471.487 964.12 483.386 948.778 502.629C923.618 534.2 902.602 577.639 906.017 620.182C908.383 649.66 924.239 668.965 944.399 687.419C952.868 695.177 959.752 700.666 960.191 713.262C960.919 733.265 953.531 754.433 947.45 772.978C925.695 839.348 894.786 903.523 860.419 963.45C843.236 993.395 824.682 1023.25 801.899 1048.8C786.985 1065.57 766.868 1085.53 744.117 1085.51C717.769 1085.51 689.89 1075.42 664.281 1067.88C616.456 1053.78 569.209 1037.48 522.144 1020.76C413.305 982.076 305.493 940.253 198.701 895.303C123.48 863.583 46.6628 831.82 -24.0563 789.653C-37.8492 781.373 -50.8669 771.718 -62.9351 760.819C-75.8297 749.373 -91.8301 744.252 -108.054 740.433C-208.753 716.735 -319.073 734.928 -420.191 746.337C-445.857 749.227 -471.522 752.133 -497.261 754.157C-519.386 755.897 -545.876 760.888 -567.38 753.39C-609.755 738.632 -572.712 684.237 -557.051 662.072C-501.913 584.034 -430.773 518.008 -364.835 450.603C-333.484 418.503 -301.895 386.487 -272.249 352.569C-256.812 334.936 -226.371 306.263 -226.472 283.216Z" fill="#010937"/>
<path fill-rule="evenodd" clip-rule="evenodd" d="M-207.472 278.785C-224.372 250.967 -254.023 230.406 -278.637 211.057C-314.058 183.201 -350.592 156.893 -386.575 129.826C-420.601 104.231 -454.698 78.3446 -486.208 49.2774C-505.422 31.5525 -529.53 10.3556 -538.63 -15.8605C-558.372 -72.6837 -452.168 -64.0625 -425.95 -65.5492C-360.769 -69.2276 -286.87 -70.0706 -226.57 -99.988C-188.916 -118.671 -173.446 -149.654 -181.477 -192.668C-184.253 -207.55 -189.255 -220.256 -182.922 -235.06C-175.6 -252.196 -158.757 -262.878 -143.317 -270.419C-94.95 -294.046 -37.7786 -299.065 14.6509 -303.241C68.8149 -307.556 125.25 -310.598 177.672 -307.44C198.635 -306.184 222.764 -313.318 243.51 -318.79C275.43 -327.22 307.024 -336.944 338.789 -345.987C403.348 -364.378 469.577 -382.096 536.726 -384.111C585.204 -385.568 635.759 -377.674 676.1 -347.167C716.977 -316.23 735.113 -268.274 757.778 -222.685C796.931 -143.868 849.809 -48.0386 940.384 -31.3862C954.12 -28.8575 967.321 -30.2291 981.036 -29.6083C988.091 -29.2942 996.121 -28.298 999.697 -20.9183C1008.99 -1.76007 983.541 33.269 974.976 47.9435C951.304 88.4981 924.699 127.067 899.893 166.84C880.193 198.42 855.226 233.51 847.614 270.945C838.364 316.374 898.769 348.697 920.021 380.683C956.85 436.15 887.067 467.753 852.668 494.2C813.162 524.562 780.561 579.951 815.967 626.927C829.521 644.89 846.19 655.596 852.24 679.037C861.693 715.699 854.541 757.594 846.865 793.833C835.302 848.312 816.995 902.201 792.113 951.433C774.287 986.683 744.717 1041.97 701.41 1037.81C672.257 1035.05 642.622 1024.94 614.229 1016C571.725 1002.64 529.756 987.391 488.013 971.557C391.646 935.115 296.35 894.931 202.914 850.726C139.165 820.556 -38.6598 697.261 -52.0405 692.862C-91.9352 679.758 -137.295 682.064 -178.427 684.096C-233.14 686.793 -287.579 693.782 -341.975 700.258C-367.867 703.323 -393.891 707.07 -419.921 708.579C-438.448 709.652 -462.78 710.572 -479.009 699.146C-510.684 676.854 -475.395 625.847 -460.8 604.267C-416.09 538.11 -359.534 480.819 -306.503 422.241C-280.481 393.481 -254.06 364.767 -230.437 333.7C-220.909 321.155 -197.026 295.966 -207.472 278.785Z" fill="#020F59"/>
<path fill-rule="evenodd" clip-rule="evenodd" d="M-184.09 264.518C-230.245 208.852 -293.949 167.451 -348.929 120.96C-376.524 97.6194 -404.293 73.6411 -428.093 45.839C-440.474 31.3822 -455.934 13.1 -458.319 -7.05246C-464.694 -60.9634 -368.972 -53.6735 -340.321 -55.7202C-284.929 -59.6909 -222.353 -62.7033 -172.099 -90.2145C-141.397 -107.033 -126.277 -134.636 -132.015 -170.916C-134.559 -187.014 -138.52 -200.688 -132.015 -216.495C-125.423 -232.508 -111.691 -243.807 -97.7852 -252.277C-57.8241 -276.638 -8.16312 -284.425 36.8288 -290.228C89.6085 -296.987 142.785 -299.626 195.93 -298.123C242.476 -296.829 288.801 -311.4 334.25 -321.005C394.451 -333.722 455.744 -344.829 517.359 -343.151C566.008 -341.817 615.053 -331.338 656.647 -303.49C698.915 -275.127 724.321 -232.677 747.233 -186.867C781.867 -117.619 825.035 -24.8209 901.017 1.47928C912.066 5.31198 922.365 5.73358 933.768 6.40042C939.303 6.72241 946.454 6.82208 949.195 12.9467C955.801 27.695 931.38 56.2867 924.56 66.2522C902.805 98.0634 879.23 128.442 856.929 159.832C836.116 189.136 813.44 219.676 800.507 254.016C779.929 308.709 845.719 340.69 843.878 392.807C842.732 425.163 813.526 448.366 790.389 464.417C761.911 484.155 720.917 497.133 706.656 533.153C696.046 559.982 712.705 575.597 725.531 595.956C747.275 630.45 748.753 677.209 746.494 717.138C743.443 771.095 731.526 825.849 711.238 875.449C702.041 897.928 690.778 921.311 674.205 938.773C658.67 955.147 643.971 959.335 623.211 955.984C559.67 945.717 495.507 917.085 434.567 891.515C358.007 859.378 282.506 823.902 209.25 783.989C159.3 756.768 108.223 727.969 64.3803 690.363C52.9535 680.559 41.2516 669.904 32.8965 656.973C26.5798 647.253 23.8989 639.228 13.2526 633.677C-18.303 617.235 -62.1965 621.535 -96.0068 623.245C-150.07 625.966 -203.872 633.21 -257.602 639.733C-288.955 643.566 -348.019 655.623 -373.056 626.702C-394.666 601.728 -368.589 559.146 -355.268 537.147C-321.574 481.511 -278.229 432.682 -238.014 382.405C-219.585 359.362 -200.431 336.144 -185.21 310.526C-181.322 303.995 -175.092 295.34 -174.022 287.407C-172.822 278.315 -178.424 271.379 -184.09 264.518Z" fill="#101F78" stroke="#101F78" stroke-width="5"/>
<path fill-rule="evenodd" clip-rule="evenodd" d="M-180.122 277.477C-222.771 228.258 -274.152 187.822 -319.939 141.763C-340.469 121.113 -361.201 99.4485 -376.843 74.2555C-385.258 60.7081 -394.192 43.6552 -391.872 26.8164C-385.214 -21.5129 -306.486 -17.1479 -274.68 -19.9787C-227.42 -24.1365 -173.125 -28.3251 -131.335 -54.3846C-103.96 -71.4533 -93.6964 -96.6613 -98.8065 -129.172C-104.293 -164.046 -92.0262 -189.361 -64.1086 -208.816C-29.1077 -233.188 15.0738 -243.122 55.7136 -250.18C104.677 -258.642 154.259 -262.393 203.858 -261.387C252.095 -260.406 298.833 -268.982 346.744 -274.559C410.285 -281.947 475.85 -285.591 538.664 -270.448C593.362 -257.261 642.761 -228.201 679.794 -183.263C718.475 -136.36 737.618 -77.2681 769.03 -25.3792C788.623 6.98611 815.934 49.7997 852.55 62.3808C864.755 66.577 887.002 60.9157 877.249 81.5588C871.682 93.3655 861.243 103.721 853.01 113.372C839.692 128.968 825.934 144.134 812.401 159.515C783.537 192.302 752.639 225.788 731.012 264.612C703.754 313.494 744.267 351.114 739.331 400.678C736.676 427.351 719.193 448.639 700.703 465.363C688.744 476.195 675.65 485.577 662.289 494.33C648.328 503.474 631.808 510.44 619.635 522.261C602.291 539.085 609.818 558.999 613.072 580.748C618.8 618.968 620.053 657.792 616.82 696.339C612.858 743.587 603.565 792.185 584.005 835.121C576.393 851.837 566.746 869.557 552.421 880.764C538.107 891.971 523.29 891.208 506.888 887.829C458.217 877.86 409.643 854.652 363.478 832.659C305.685 805.126 249.037 774.357 194.938 739.353C157.594 715.187 120.128 689.082 88.8859 656.318C79.7995 646.782 71.1542 636.572 64.1641 625.172C59.3645 617.355 56.7907 607.267 49.8369 601.391C28.0786 583.049 -15.605 588.526 -41.1223 589.593C-92.0476 591.718 -142.171 601.821 -193.032 604.276C-220.79 605.618 -264.264 608.993 -284.649 583.916C-303.819 560.342 -286.456 523.212 -274.998 500.498C-252.481 455.836 -222.229 416.044 -195.115 374.527C-183.967 357.443 -171.751 339.569 -164.53 320.061C-158.111 302.677 -169.193 290.096 -180.122 277.477Z" fill="#101F78" stroke="#101F78" stroke-width="5"/>
<path fill-rule="evenodd" clip-rule="evenodd" d="M-169.633 278.282C-203.58 234.97 -244.505 196.523 -278.697 152.507C-298.711 126.73 -333.179 83.3954 -317.701 47.0547C-300.72 7.12164 -241.528 6.03397 -207.313 2.81664C-166.591 -1.01347 -118.769 -6.2455 -83.9184 -31.1799C-72.8963 -39.0624 -63.507 -49.4958 -59.5275 -63.2384C-55.2653 -77.9463 -59.9247 -90.8156 -60.5306 -105.539C-61.8026 -136.425 -44.4241 -161.222 -21.4261 -178.251C11.076 -202.327 51.7191 -213.71 90.1085 -221.646C133.602 -230.597 177.817 -235.01 222.121 -234.822C264.466 -234.669 306.349 -235.665 348.735 -236.814C404.161 -238.346 460.369 -235.871 514.136 -220.252C567.11 -204.855 615.256 -175.998 653.082 -133.553C689.986 -92.1332 714.889 -41.5061 736.687 10.0632C749.063 39.3334 769.962 83.0742 799.479 97.8586C812.605 104.439 825.484 103.986 811.523 121.1C793.954 142.648 770.272 159.938 749.92 178.368C720.552 204.965 690.457 232.083 665.811 263.704C650.073 283.897 643.061 303.492 644.142 329.637C644.988 349.554 648.778 369.264 646.861 389.257C642.365 436.185 607.527 468.366 576.725 498.333C556.918 517.606 538.825 532.307 528.621 559.722C516.555 592.126 511.502 627.379 503.44 661.023C494.586 697.969 484.351 736.4 465.026 768.942C447.821 797.913 426.891 810.905 395.575 803.099C346.733 790.935 298.587 760.968 255.216 733.245C211.077 705.039 167.697 673.325 131.12 634.557C111.373 613.62 97.8951 589.039 80.3583 566.548C58.2991 538.312 8.39624 549.006 -21.2601 551.396C-70.4917 555.364 -225.399 585.055 -211.105 488.888C-205.14 448.747 -181.644 411.702 -164.46 376.281C-157.339 361.58 -147.032 343.938 -145.422 327.094C-143.666 308.747 -159.426 291.32 -169.633 278.282Z" fill="#020F59" stroke="#020F59" stroke-width="5"/>
<path fill-rule="evenodd" clip-rule="evenodd" d="M-151.708 281.96C-177.65 242.711 -208.696 205.63 -230.957 163.239C-245.396 135.786 -259.577 99.1041 -240.949 70.0565C-219.924 37.2762 -173.564 29.635 -139.499 25.4579C-104.403 21.1582 -62.5037 17.5407 -33.8185 -7.31467C-24.6925 -15.232 -17.1691 -25.9084 -15.7677 -38.6925C-14.4176 -50.9554 -18.2302 -63.2183 -16.9668 -75.7035C-14.1361 -103.74 1.88477 -126.84 22.5414 -143.594C83.6463 -193.159 174.59 -204.181 248.315 -205.476C285.215 -206.12 323.19 -202.74 360.33 -200.318C408.53 -197.176 456.793 -190.431 502.755 -174.175C600.482 -139.624 665.983 -62.996 711.731 32.3559C726.13 62.3697 737.147 94.8427 759.705 118.962C771.343 131.417 768.795 140.361 756.911 151.72C738.314 169.47 715.638 183.036 695.007 197.852C665.651 218.921 635.673 240.304 609.721 265.543C591.831 282.941 579.123 299.702 575.269 325.792C572.517 344.394 573.16 363.347 571.511 382.063C568.363 417.618 557.582 452.905 538.503 482.397C523.333 505.773 505.282 527.019 486.632 547.276C462.382 573.648 441.869 600.444 423.443 631.745C399.033 673.178 364.72 749.606 307.206 729.38C243.767 707.061 184.309 650.353 143.609 595.408C129.941 576.959 118.721 554.335 100.288 540.73C72.6927 520.397 44.6937 521.109 11.8705 521.194C-37.2702 521.309 -144.2 532.629 -145.355 454.515C-145.81 423.566 -133.188 394.304 -127.146 364.535C-120.33 331.195 -133.99 308.708 -151.708 281.96Z" fill="#020F59" stroke="#020F59" stroke-width="5"/>
<path fill-rule="evenodd" clip-rule="evenodd" d="M-132.387 285.46C-158.046 234.305 -215.587 150.248 -171.823 93.3645C-148.706 63.3033 -107.817 52.0067 -73.5172 45.2739C-45.9144 39.8286 -12.6255 37.7835 8.23032 14.6997C23.5606 -2.27255 16.7557 -26.9727 22.6281 -48.2187C29.918 -74.5578 46.6486 -96.1101 67.2089 -112.309C124.662 -157.581 204.547 -171.474 273.663 -174.431C345.438 -177.494 424.525 -163.165 492.07 -135.6C576.296 -101.219 639.388 -36.1176 683.509 46.3239C691.656 61.5421 699.054 77.1587 706.87 92.5603C712.116 102.893 719.91 112.888 724.043 123.755C730.938 141.877 722.822 156.689 709.803 168.5C691.078 185.502 668.07 197.603 646.722 210.363C617.537 227.825 587.688 244.974 560.537 265.462C542.283 279.248 523.183 294.099 516.652 318.017C512.198 334.331 511.277 351.61 511.438 368.506C511.78 404.732 509.993 434.028 494.051 467.207C467.831 521.677 427.501 570.656 384.901 611.41C351.465 643.393 298.566 693.077 249.855 671.693C206.15 652.546 180.584 606.714 151.788 569.661C137.788 551.646 122.061 535.195 103.582 522.382C80.2845 506.229 58.3517 499.451 30.7488 496.808C-15.7099 492.359 -85.762 491.202 -100.123 432.075C-105.426 410.255 -102.399 387.653 -105.181 365.549C-108.815 336.322 -119.441 311.262 -132.387 285.46Z" fill="#101F78" stroke="#101F78" stroke-width="5"/>
<path fill-rule="evenodd" clip-rule="evenodd" d="M-105.704 287.354C-123.977 231.381 -147.981 160.84 -103.849 111.093C-82.4719 86.9949 -52.4033 73.5229 -23.3027 63.455C-2.45975 56.2401 30.6344 54.1169 43.4123 31.9342C52.7974 15.6104 54.0971 -6.90901 62.5871 -24.3985C74.2537 -48.4437 91.9265 -68.2489 112.661 -83.7526C166.677 -124.153 237.029 -139.764 301.189 -144.234C440.595 -153.933 582.442 -76.6831 657.043 50.4131C679.28 88.298 707.994 128.622 672.053 167.327C632.804 209.551 573.684 229.334 526.844 259.337C508.944 270.792 486.139 284.562 476.161 305.303C470.155 317.771 469.737 333.413 469.47 347.137C468.742 382.093 466.012 413.529 452.757 446.147C432.298 496.553 399.676 543.057 362.707 581.148C330.46 614.364 284.487 653.4 237.658 629.454C201.756 611.051 178.985 571.994 151.09 543.202C120.046 511.137 81.6539 489.53 39.4927 478.972C-1.52081 468.728 -46.5053 461.819 -68.1201 418.299C-75.5342 403.37 -83.2812 384.041 -86.0606 367.517C-90.5476 340.274 -97.1169 313.464 -105.704 287.354Z" fill="#101F78" stroke="#101F78" stroke-width="5"/>
<path fill-rule="evenodd" clip-rule="evenodd" d="M-75.9538 287.748C-84.4063 231.228 -85.3464 172.293 -46.0705 127.746C-27.7403 106.964 -4.56983 92.1991 18.8608 78.8221C36.1 68.9795 53.9024 60.6774 66.7766 44.5405C78.7055 29.5997 87.7726 12.2522 99.2894 -3.07957C114.482 -23.3974 132.659 -40.9859 153.124 -55.1691C204.422 -90.6544 266.822 -107.251 326.52 -113.008C355.427 -115.806 386.775 -117.263 415.478 -109.635C443.197 -102.276 470.615 -90.6391 496.107 -77.0705C550.291 -48.2545 597.249 -6.05396 631.295 47.3004C654.645 83.897 667.268 119.482 637.033 156.608C602.955 198.456 549.52 221.546 505.475 248.706C475.262 267.334 441.409 285.594 435.766 325.18C431.27 356.68 427.619 386.576 416.003 416.351C398.701 460.268 373.263 500.051 341.187 533.34C311.863 563.665 274.766 589.4 232.816 573.202C199.58 560.346 173.794 531.545 144.757 510.955C112.396 487.957 76.8416 475.278 39.4018 465.083C5.75418 455.883 -25.9277 441.748 -47.6743 411.736C-52.1248 405.603 -56.8003 398.926 -60.2316 392.065C-64.6105 383.311 -64.27 374.633 -65.1297 364.821C-67.3695 338.925 -72.1316 313.329 -75.9538 287.748Z" fill="#020F59" stroke="#020F59" stroke-width="5"/>
<path fill-rule="evenodd" clip-rule="evenodd" d="M-43.1501 283.128C-42.4285 229.442 -30.2597 178.704 3.06884 136.866C17.3167 118.968 34.3311 104.226 50.0093 87.8251C62.6331 74.6036 74.563 62.3185 89.0786 51.423C123.511 25.6243 151.495 -7.76054 188.088 -30.7338C236.935 -61.4466 292.891 -78.4231 348.403 -85.2105C375.522 -88.5276 403.519 -89.687 430.948 -85.94C454.513 -82.7229 477.071 -71.4282 498.002 -59.8725C539.017 -37.2372 578.845 -5.06551 605.482 35.637C664.195 125.372 548.428 190.613 489.008 228.82C461.675 246.395 419.921 266.751 408.733 301.564C400.725 326.433 395.853 351.726 385.554 375.827C357.868 440.554 301.681 516.683 226.795 506.548C194.754 502.218 165.549 484.627 135.637 472.818C104.836 460.656 73.0459 453.876 41.0332 446.436C11.1135 439.487 -12.7325 429.597 -32.0573 403.084C-41.2947 390.423 -40.4778 375.266 -41.3011 359.734C-42.6447 334.219 -43.4756 308.558 -43.1501 283.128Z" fill="#010937" stroke="#010937" stroke-width="5"/>
<path fill-rule="evenodd" clip-rule="evenodd" d="M-13.2794 276.252C-1.24989 195.217 43.4294 106.751 109.126 59.6907C186.404 4.33219 270.119 -42.2839 362.45 -55.6849C405.264 -61.8988 452.158 -64.956 492.542 -44.6362C523.29 -29.1818 558.995 -6.08057 575.911 26.4066C617.302 105.87 525.239 169.128 472.789 205.891C444.546 225.682 408.605 244.968 387.321 273.869C374.966 290.626 368.66 312.792 358.692 331.196C328.479 386.969 278.749 431.952 216.798 439.998C188.153 443.714 159.3 439.117 130.873 435.462C101.773 431.723 72.3128 429.692 43.3931 424.475C20.3093 420.307 -6.89637 413.25 -15.3982 387.038C-26.1194 354.006 -18.1893 309.344 -13.2794 276.252Z" fill="#020F59" stroke="#020F59" stroke-width="5"/>
<path fill-rule="evenodd" clip-rule="evenodd" d="M16.0104 263.234C33.5558 187.048 70.7087 112.733 133.167 67.2519C166.288 43.1349 204.737 26.487 241.651 10.0382C283.491 -8.60378 327.215 -23.074 371.86 -30.2517C427.458 -39.1931 517.498 -47.2526 546.544 19.9611C575.376 86.6765 502.53 145.723 459.448 179.373C431.826 200.928 402.266 220.713 375.875 244.278C361.561 257.053 350.544 271.816 338.436 286.799C304.968 328.316 257.249 361.183 208.617 378.728C161.482 395.737 103.172 403.268 53.417 397.647C31.9489 395.231 16.6047 387.08 10.1114 363.906C1.1149 331.69 8.75803 294.706 16.0104 263.234Z" fill="#010937" stroke="#010937" stroke-width="5"/>
<path fill-rule="evenodd" clip-rule="evenodd" d="M45.1167 242.715C62.5465 175.636 100.14 114.369 154.978 74.1093C216.447 28.9779 295.6 3.89945 368.349 -8.85343C407.02 -15.627 490.818 -33.9926 510.528 18.5692C530.238 71.1307 473.26 122.929 440.466 151.444C400.661 185.998 357.75 219.362 314.882 250.366C277.646 277.323 237.904 304.883 197.566 325.701C174.816 337.51 151.117 347.152 126.751 354.513C108.707 359.919 85.764 367.984 66.8472 363.959C19.1337 353.795 36.7808 274.788 45.1167 242.715Z" fill="#020F59" stroke="#020F59" stroke-width="5"/>
<path fill-rule="evenodd" clip-rule="evenodd" d="M81.0438 222.628C119.287 95.7745 240.451 33.3854 357.108 11.639C384.227 6.59114 460.22 -11.6085 475.369 27.1424C490.058 64.7135 443.357 109.271 421.495 130.381C353.746 195.795 270.044 244.297 190.728 292.347C165.971 307.345 121.321 339.892 90.6109 324.879C57.2684 308.548 73.1212 248.932 81.0438 222.628Z" fill="#010937" stroke="#010937" stroke-width="5"/>
<path fill-rule="evenodd" clip-rule="evenodd" d="M120.216 198.212C153.473 104.793 250.207 51.2146 339.142 33.552C360.93 29.2301 416.249 15.7736 432.747 41.8429C448.014 65.958 411.581 100.901 397.952 114.786C367.599 145.706 331.637 171.178 296.103 195.66C263.256 218.312 230.045 241.53 195.477 260.687C177.269 270.772 143.122 292.289 122.431 276.718C100.155 259.967 112.831 218.955 120.216 198.212Z" fill="#101F78" stroke="#101F78" stroke-width="5"/>
<path fill-rule="evenodd" clip-rule="evenodd" d="M163.382 170.919C188.732 109.913 256.622 70.2976 316.51 57.1328C332.622 53.5984 367.45 44.4288 381.047 60.7212C393.562 75.7253 373.392 97.7218 364.441 107.881C324.764 152.909 266.672 193.129 213.435 217.833C200.051 224.043 175.992 236.234 162.224 223.698C148.101 210.826 157.56 184.926 163.382 170.919Z" fill="#020F59" stroke="#020F59" stroke-width="5"/>
<path fill-rule="evenodd" clip-rule="evenodd" d="M209.176 145.292C223.459 114.999 260.794 92.1442 291.714 84.8688C313.48 79.753 339.635 84.1716 320.674 110.541C301.831 136.709 266.865 160.609 237.237 171.205C214.629 179.285 196.91 171.313 209.176 145.292Z" fill="#010937" stroke="#010937" stroke-width="5"/>
<path fill-rule="evenodd" clip-rule="evenodd" d="M509.147 1294.49C450.316 1332.37 383.809 1363.62 321.092 1395.4C229.435 1441.83 136.43 1487.02 40.1256 1521.61C-11.5074 1540.15 -78.414 1566.88 -133.816 1552.35C-154.072 1547.05 -172.544 1530.99 -190.707 1520.55C-215.75 1506.16 -241.162 1492.49 -266.53 1478.79C-317.42 1451.31 -368.468 1424.12 -418.483 1394.88C-442.567 1380.81 -465.935 1363.07 -491.008 1351.06C-505.66 1344.03 -523.193 1347.32 -538.85 1347.76C-575.115 1348.8 -611.359 1350.76 -647.604 1352.43C-691.936 1354.47 -736.369 1356.63 -780.752 1355.83C-800.77 1355.46 -849.796 1359.23 -860.816 1340.94C-866.744 1331.08 -852.771 1313.32 -846.293 1305.1C-834.4 1290 -820.73 1276.38 -807.24 1262.9C-776.044 1231.73 -742.912 1202.06 -715.182 1167.25C-700.934 1149.36 -682.267 1127.49 -691.567 1103.06C-700.956 1078.39 -717.218 1057.02 -727.14 1032.42C-738.565 1004.13 -743.302 974.676 -748.696 944.675C-752.69 922.493 -761.991 902.843 -770.736 882.402C-780.398 859.799 -790.407 837.007 -797.116 813.175C-801.55 797.432 -808.706 769.11 -793.195 759.143C-771.155 744.971 -729.827 756.446 -704.704 760.622C-669.984 766.383 -635.516 773.722 -600.889 780.042C-575.751 784.639 -550.526 789.679 -524.971 790.215C-483.772 791.081 -442.437 788.085 -401.347 785.298C-325.263 780.133 -249.724 773.132 -173.382 773.132C-106.499 773.132 48.0621 855.233 84.2418 869.687C156.455 898.543 230.59 925.9 298.93 964.297C317.409 974.694 345.866 988.545 355.588 1009.94C361.594 1023.13 358.831 1030.75 372.985 1039.25C392.299 1050.84 417.041 1055.39 438.411 1060.57C472.842 1068.92 507.531 1076 542.112 1083.56C612.056 1098.81 681.529 1116.06 751.183 1132.67C772.243 1137.68 797.724 1138.79 817.798 1147.63C830.742 1153.31 829.393 1160.45 819.382 1169.08C801.813 1184.22 777.189 1192.62 756.43 1201.26C726.024 1213.91 695.115 1225.19 664.195 1236.31C633.265 1247.44 602.184 1258.22 571.254 1269.36C550.816 1276.7 527.509 1282.67 509.147 1294.49Z" fill="#010937"/>
<path fill-rule="evenodd" clip-rule="evenodd" d="M460.734 1286.16C398.498 1324.11 329.422 1354.34 262.829 1383.84C177.595 1421.62 90.4355 1457.02 0.632507 1480.64C-52.0947 1494.49 -114.307 1509.79 -168.183 1493.9C-187.402 1488.23 -201.762 1475.49 -218.237 1464.24C-237.017 1451.41 -256.519 1439.65 -276.021 1428.07C-316.167 1404.24 -356.735 1381.23 -397.728 1359.03C-419.44 1347.21 -443.341 1331.41 -467.87 1327.31C-487.371 1324.05 -509.525 1328.76 -529.113 1330.14C-564.39 1332.61 -599.659 1335.16 -634.95 1337.32C-675.674 1339.81 -716.512 1342.11 -757.322 1341.71C-780.067 1341.49 -819.114 1345.17 -835.2 1329.57C-849.234 1315.97 -798.139 1266.74 -789.154 1257.39C-761.093 1228.19 -731.58 1200.38 -705.462 1169.16C-690.026 1150.75 -671.232 1128.36 -664.723 1103.95C-659.184 1083.15 -669.874 1059.46 -676.187 1040.23C-684.081 1016.15 -690.452 991.189 -699.625 967.611C-707.794 946.602 -720.796 927.892 -732.215 908.801C-744.776 887.792 -757.495 866.438 -766.82 843.527C-772.534 829.427 -781.988 805.813 -770.634 792.372C-757.517 776.875 -717.083 787.002 -700.463 789.211C-666.746 793.753 -633.29 800.504 -599.804 806.549C-544.187 816.584 -491.163 825.361 -434.528 823.259C-360.775 820.512 -287.094 814.052 -213.354 810.478C-186.124 809.142 -158.46 806.457 -131.207 807.908C-115.585 808.743 -103.688 813.807 -94.6017 825.23C-82.1932 840.819 -53.6118 849.45 -33.7346 858.395C-2.74103 872.33 28.6432 885.297 59.9398 898.431C128.645 927.278 198.671 955.082 263.824 992.389C284.444 1004.19 308.052 1017.35 323.297 1036.84C331.809 1047.71 329.657 1058.18 334.85 1069.73C341.734 1084.93 364.335 1091.79 377.846 1096.76C403.937 1106.37 431.088 1112.8 458.025 1118.83C518.986 1132.48 580.098 1141.44 642.044 1148.05C656.562 1149.59 713.733 1154.9 683.702 1180.52C650.534 1208.85 602.634 1222.72 563.578 1238.68C528.397 1253.02 493.184 1266.37 460.734 1286.16Z" fill="#020F59" stroke="#020F59" stroke-width="5"/>
</g>
<g filter="url(#filter0_b_43_185)">
<rect width="397" height="114" fill="#010937" fill-opacity="0.4"/>
</g>
<defs>
<filter id="filter0_b_43_185" x="-11.3" y="-11.3" width="419.6" height="136.6" filterUnits="userSpaceOnUse" color-interpolation-filters="sRGB">
<feFlood flood-opacity="0" result="BackgroundImageFix"/>
<feGaussianBlur in="BackgroundImageFix" stdDeviation="5.65"/>
<feComposite in2="SourceAlpha" operator="in" result="effect1_backgroundBlur_43_185"/>
<feBlend mode="normal" in="SourceGraphic" in2="effect1_backgroundBlur_43_185" result="shape"/>
</filter>
</defs>
</svg>
