<svg width="281" height="282" viewBox="0 0 281 282" fill="none" xmlns="http://www.w3.org/2000/svg">
<path d="M140.363 73.6329V44.8829M140.363 236.55V207.8M93.1343 93.2811L72.8934 72.9518M207.833 208.481L187.592 188.151M207.155 140.716H235.78M44.9463 140.716H73.5713M187.592 93.2811L207.833 72.9518M72.893 208.481L93.1339 188.151" stroke="#B0E338" stroke-width="1.5" stroke-linecap="round" stroke-linejoin="round"/>
<path d="M157.725 75.9187L165.166 48.1484M115.559 233.284L123 205.514M107.02 82.6737L92.7306 57.7984M187.995 223.634L173.705 198.759M204.878 158.003L232.528 165.412M48.197 116.021L75.8466 123.429M198.259 107.121L223.072 92.7232M57.6527 188.709L82.4656 174.311" stroke="#B0E338" stroke-width="1.5" stroke-linecap="round" stroke-linejoin="round"/>
</svg>
