<svg width="59" height="59" viewBox="0 0 59 59" fill="none" xmlns="http://www.w3.org/2000/svg">
<g clip-path="url(#clip0_68_4153)">
<path d="M49.946 10.2159C46.1855 8.49043 42.153 7.21918 37.9367 6.49109C37.86 6.47704 37.7833 6.51216 37.7437 6.58239C37.2251 7.50479 36.6506 8.70815 36.2484 9.65397C31.7135 8.97506 27.2019 8.97506 22.76 9.65397C22.3577 8.68712 21.7624 7.50479 21.2414 6.58239C21.2019 6.5145 21.1252 6.47938 21.0484 6.49109C16.8344 7.21686 12.8019 8.4881 9.03913 10.2159C9.00656 10.2299 8.97864 10.2534 8.9601 10.2838C1.31125 21.711 -0.784086 32.8573 0.243818 43.8655C0.248469 43.9193 0.278701 43.9709 0.320562 44.0036C5.36705 47.7096 10.2554 49.9595 15.0531 51.4508C15.1298 51.4743 15.2112 51.4462 15.2601 51.3829C16.3949 49.8331 17.4066 48.199 18.274 46.4805C18.3251 46.3799 18.2763 46.2605 18.1717 46.2207C16.567 45.612 15.0391 44.8698 13.5693 44.027C13.4531 43.9592 13.4438 43.7929 13.5507 43.7133C13.86 43.4815 14.1694 43.2403 14.4647 42.9969C14.5182 42.9524 14.5926 42.943 14.6554 42.9711C24.3112 47.3796 34.7646 47.3796 44.3064 42.9711C44.3692 42.9407 44.4437 42.9501 44.4995 42.9945C44.7949 43.238 45.1042 43.4815 45.4158 43.7133C45.5227 43.7929 45.5158 43.9592 45.3995 44.027C43.9297 44.8862 42.4018 45.612 40.7948 46.2184C40.6902 46.2582 40.6437 46.3799 40.6949 46.4805C41.5809 48.1966 42.5925 49.8307 43.7065 51.3806C43.753 51.4462 43.8367 51.4743 43.9134 51.4508C48.7343 49.9595 53.6227 47.7096 58.6692 44.0036C58.7134 43.9709 58.7413 43.9217 58.746 43.8678C59.9762 31.1412 56.6855 20.0863 50.0227 10.2861C50.0064 10.2534 49.9786 10.2299 49.946 10.2159ZM19.7159 37.1627C16.8088 37.1627 14.4135 34.4938 14.4135 31.2161C14.4135 27.9385 16.7624 25.2696 19.7159 25.2696C22.6926 25.2696 25.0647 27.9619 25.0182 31.2161C25.0182 34.4938 22.6693 37.1627 19.7159 37.1627ZM39.3204 37.1627C36.4135 37.1627 34.0182 34.4938 34.0182 31.2161C34.0182 27.9385 36.3669 25.2696 39.3204 25.2696C42.2972 25.2696 44.6692 27.9619 44.6228 31.2161C44.6228 34.4938 42.2972 37.1627 39.3204 37.1627Z" fill="white"/>
</g>
<defs>
<clipPath id="clip0_68_4153">
<rect width="59" height="59" fill="white"/>
</clipPath>
</defs>
</svg>
