<svg width="65" height="65" viewBox="0 0 65 65" fill="none" xmlns="http://www.w3.org/2000/svg">
<g clip-path="url(#clip0_65_3507)">
<path d="M32.1387 26.2955V38.7422H49.4353C48.6758 42.7449 46.3966 46.1343 42.9782 48.4132L53.4087 56.5065C59.486 50.8969 62.9921 42.6576 62.9921 32.8698C62.9921 30.5909 62.7876 28.3993 62.4077 26.2959L32.1387 26.2955Z" fill="white"/>
<path d="M14.1268 38.2563L11.7744 40.0572L3.44727 46.5433C8.7356 57.0322 19.5744 64.2783 32.1378 64.2783C40.8152 64.2783 48.0902 61.415 53.4079 56.5065L42.9773 48.4133C40.114 50.3416 36.4618 51.5104 32.1378 51.5104C23.7817 51.5104 16.6821 45.8715 14.14 38.2749L14.1268 38.2563Z" fill="white"/>
<path d="M3.4474 17.735C1.25622 22.059 0 26.9384 0 32.139C0 37.3396 1.25622 42.219 3.4474 46.543C3.4474 46.572 14.1411 38.2452 14.1411 38.2452C13.4984 36.3169 13.1184 34.2718 13.1184 32.1386C13.1184 30.0055 13.4984 27.9604 14.1411 26.0321L3.4474 17.735Z" fill="white"/>
<path d="M32.1385 12.7972C36.8718 12.7972 41.079 14.4333 44.439 17.5889L53.6424 8.3855C48.0618 3.18489 40.8162 0 32.1385 0C19.5751 0 8.7356 7.21668 3.44727 17.735L14.1407 26.0327C16.6824 18.4361 23.7824 12.7972 32.1385 12.7972Z" fill="white"/>
</g>
<defs>
<clipPath id="clip0_65_3507">
<rect width="64.2783" height="64.2783" fill="white"/>
</clipPath>
</defs>
</svg>
