<svg width="60" height="59" viewBox="0 0 60 59" fill="none" xmlns="http://www.w3.org/2000/svg">
<path d="M30.0602 0C22.1252 0 21.1302 0.0336628 18.0138 0.175795C14.904 0.317665 12.7801 0.811647 10.9216 1.53379C9.0003 2.28046 7.37092 3.27956 5.74667 4.90381C4.12233 6.52806 3.12323 8.15762 2.37665 10.0789C1.65433 11.9373 1.16053 14.0612 1.01848 17.1711C0.876349 20.2874 0.842773 21.2825 0.842773 29.2175C0.842773 37.1523 0.876349 38.1473 1.01848 41.2637C1.16053 44.3736 1.65433 46.4974 2.37665 48.3559C3.12332 50.2772 4.12242 51.9065 5.74667 53.531C7.37101 55.1552 9.0003 56.1543 10.9216 56.901C12.7801 57.6231 14.904 58.117 18.0138 58.259C21.1302 58.4011 22.1252 58.4348 30.0602 58.4348C37.9951 58.4348 38.9901 58.4011 42.1065 58.259C45.2163 58.1171 47.3402 57.6231 49.1986 56.901C51.1199 56.1543 52.7493 55.1552 54.3737 53.531C55.998 51.9065 56.9971 50.2772 57.7438 48.3559C58.4659 46.4974 58.9599 44.3736 59.1018 41.2637C59.2439 38.1473 59.2776 37.1523 59.2776 29.2175C59.2776 21.2825 59.2439 20.2874 59.1018 17.1711C58.9599 14.0612 58.4659 11.9373 57.7438 10.0789C56.9971 8.15762 55.998 6.52806 54.3737 4.90381C52.7493 3.27956 51.1199 2.28046 49.1986 1.53379C47.3402 0.811647 45.2163 0.317665 42.1065 0.175795C38.9901 0.0336628 37.9951 0 30.0602 0ZM30.0602 5.26436C37.8615 5.26436 38.7856 5.29419 41.8665 5.43476C44.7152 5.56462 46.2622 6.0406 47.2917 6.44073C48.6556 6.97081 49.6289 7.60388 50.6512 8.62629C51.6737 9.6487 52.3067 10.622 52.8368 11.9858C53.237 13.0153 53.7129 14.5624 53.8428 17.4111C53.9834 20.4919 54.0132 21.4161 54.0132 29.2174C54.0132 37.0187 53.9834 37.9428 53.8428 41.0237C53.7129 43.8724 53.237 45.4195 52.8368 46.4489C52.3067 47.8128 51.6737 48.7861 50.6512 49.8084C49.6289 50.8309 48.6555 51.464 47.2918 51.9941C46.2622 52.3942 44.7151 52.8702 41.8665 53C38.7861 53.1406 37.8621 53.1704 30.0602 53.1704C22.2582 53.1704 21.3344 53.1406 18.2538 52.9999C15.4051 52.8702 13.8581 52.3942 12.8286 51.9941C11.4647 51.464 10.4915 50.8309 9.46915 49.8084C8.44674 48.7861 7.81358 47.8127 7.2835 46.449C6.88337 45.4195 6.40749 43.8724 6.27753 41.0237C6.13697 37.9428 6.10713 37.0187 6.10713 29.2174C6.10713 21.4161 6.13697 20.4919 6.27753 17.4111C6.40749 14.5623 6.88337 13.0153 7.2835 11.9859C7.81358 10.622 8.44674 9.6487 9.46906 8.62637C10.4915 7.60388 11.4648 6.97081 12.8286 6.44073C13.8581 6.0406 15.4052 5.56462 18.2538 5.43476C21.3347 5.29419 22.2588 5.26436 30.0602 5.26436" fill="white"/>
<path d="M30.0593 38.9565C24.6804 38.9565 20.32 34.5962 20.32 29.2175C20.32 23.8386 24.6804 19.4782 30.0593 19.4782C35.438 19.4782 39.7983 23.8386 39.7983 29.2175C39.7983 34.5962 35.438 38.9565 30.0593 38.9565ZM30.0593 14.2139C21.7729 14.2139 15.0557 20.9311 15.0557 29.2175C15.0557 37.5037 21.7729 44.2209 30.0593 44.2209C38.3454 44.2209 45.0627 37.5037 45.0627 29.2175C45.0627 20.9311 38.3454 14.2139 30.0593 14.2139ZM49.1616 13.6211C49.1616 15.5575 47.5918 17.1271 45.6555 17.1271C43.7192 17.1271 42.1494 15.5575 42.1494 13.6211C42.1494 11.6847 43.7192 10.1149 45.6555 10.1149C47.5918 10.1149 49.1616 11.6847 49.1616 13.6211Z" fill="white"/>
</svg>
