<svg width="300" height="59" viewBox="0 0 300 59" fill="none" xmlns="http://www.w3.org/2000/svg">
<g filter="url(#filter0_d_35_2061)">
<path d="M133.431 2V39.4514H127.464L110.016 13.9413H109.708V39.4514H103V2H109.003L126.434 27.5284H126.759V2H133.431Z" fill="white"/>
<path d="M150.71 40C147.925 40 145.521 39.4148 143.495 38.2445C141.482 37.0619 139.933 35.3917 138.849 33.2339C137.764 31.0638 137.221 28.5098 137.221 25.5717C137.221 22.6824 137.764 20.1466 138.849 17.9644C139.945 15.77 141.476 14.0632 143.441 12.8441C145.406 11.6128 147.714 10.9971 150.366 10.9971C152.078 10.9971 153.693 11.2775 155.212 11.8383C156.743 12.3869 158.093 13.2403 159.262 14.3985C160.444 15.5566 161.372 17.0318 162.047 18.8239C162.722 20.6038 163.06 22.7251 163.06 25.1877V27.2175H140.295V22.7555H156.785C156.773 21.4876 156.502 20.36 155.972 19.3725C155.441 18.3728 154.7 17.5865 153.748 17.0135C152.807 16.4405 151.71 16.154 150.457 16.154C149.119 16.154 147.943 16.4832 146.931 17.1415C145.918 17.7876 145.129 18.641 144.562 19.7016C144.008 20.7501 143.724 21.9021 143.712 23.1578V27.0529C143.712 28.6866 144.008 30.0885 144.598 31.2589C145.189 32.4171 146.015 33.307 147.076 33.9288C148.136 34.5383 149.378 34.8431 150.8 34.8431C151.753 34.8431 152.615 34.709 153.386 34.4408C154.157 34.1604 154.826 33.752 155.393 33.2156C155.96 32.6792 156.388 32.0148 156.677 31.2223L162.788 31.9172C162.403 33.5508 161.667 34.9772 160.582 36.1963C159.51 37.4033 158.135 38.342 156.46 39.0125C154.784 39.6708 152.868 40 150.71 40Z" fill="white"/>
<path d="M180.429 11.3628V16.4832H164.463V11.3628H180.429ZM168.405 4.6333H174.95V31.0029C174.95 31.8928 175.083 32.5756 175.348 33.051C175.625 33.5143 175.987 33.8312 176.433 34.0019C176.879 34.1726 177.373 34.2579 177.916 34.2579C178.325 34.2579 178.699 34.2275 179.037 34.1665C179.386 34.1055 179.651 34.0507 179.832 34.0019L180.935 39.1771C180.586 39.299 180.085 39.4331 179.434 39.5794C178.795 39.7257 178.012 39.811 177.084 39.8354C175.444 39.8842 173.968 39.6343 172.654 39.0857C171.34 38.5249 170.297 37.6593 169.526 36.4889C168.766 35.3186 168.393 33.8556 168.405 32.1001V4.6333Z" fill="white"/>
<path d="M189.598 39.4514L181.751 11.3628H188.423L193.305 31.1126H193.558L198.548 11.3628H205.148L210.139 31.0029H210.41L215.22 11.3628H221.91L214.044 39.4514H207.228L202.02 20.4697H201.64L196.433 39.4514H189.598Z" fill="white"/>
<path d="M235.762 40C233.05 40 230.699 39.3965 228.71 38.1896C226.721 36.9827 225.178 35.2942 224.081 33.1242C222.997 30.9541 222.454 28.4184 222.454 25.5168C222.454 22.6153 222.997 20.0735 224.081 17.8912C225.178 15.709 226.721 14.0144 228.71 12.8075C230.699 11.6006 233.05 10.9971 235.762 10.9971C238.474 10.9971 240.825 11.6006 242.814 12.8075C244.803 14.0144 246.34 15.709 247.425 17.8912C248.522 20.0735 249.07 22.6153 249.07 25.5168C249.07 28.4184 248.522 30.9541 247.425 33.1242C246.34 35.2942 244.803 36.9827 242.814 38.1896C240.825 39.3965 238.474 40 235.762 40ZM235.798 34.6968C237.269 34.6968 238.498 34.2884 239.487 33.4716C240.475 32.6426 241.211 31.5332 241.693 30.1434C242.187 28.7536 242.434 27.2053 242.434 25.4986C242.434 23.7796 242.187 22.2252 241.693 20.8354C241.211 19.4334 240.475 18.3179 239.487 17.4889C238.498 16.6599 237.269 16.2454 235.798 16.2454C234.291 16.2454 233.038 16.6599 232.037 17.4889C231.049 18.3179 230.308 19.4334 229.813 20.8354C229.331 22.2252 229.09 23.7796 229.09 25.4986C229.09 27.2053 229.331 28.7536 229.813 30.1434C230.308 31.5332 231.049 32.6426 232.037 33.4716C233.038 34.2884 234.291 34.6968 235.798 34.6968Z" fill="white"/>
<path d="M252.589 39.4514V11.3628H258.936V16.0443H259.225C259.731 14.4228 260.599 13.1732 261.829 12.2955C263.07 11.4055 264.487 10.9605 266.078 10.9605C266.439 10.9605 266.843 10.9788 267.289 11.0154C267.747 11.0398 268.127 11.0825 268.428 11.1434V17.2329C268.151 17.1354 267.711 17.05 267.108 16.9769C266.518 16.8916 265.945 16.8489 265.391 16.8489C264.197 16.8489 263.124 17.111 262.172 17.6352C261.232 18.1473 260.491 18.8604 259.948 19.7748C259.406 20.6891 259.134 21.7437 259.134 22.9384V39.4514H252.589Z" fill="white"/>
<path d="M276.707 30.6371L276.689 22.6458H277.738L287.719 11.3628H295.367L283.09 25.1877H281.734L276.707 30.6371ZM270.74 39.4514V2H277.286V39.4514H270.74ZM288.171 39.4514L279.13 26.6689L283.542 22.0058L296 39.4514H288.171Z" fill="white"/>
<path d="M34.249 0V5.55366L13.5165 32.8669H34.249V39.6669H8.30511H4V34.1132L24.7324 6.8H4V0H29.9439H34.249ZM58.3279 11.281H65.1255V39.6669H58.3279V25.5C58.3279 23.2331 57.5349 21.3066 55.9488 19.7199C54.3628 18.1331 52.4368 17.3397 50.1709 17.3397C49.0729 17.3397 48.0241 17.5495 47.0249 17.9678C46.0256 18.3804 45.1483 18.9647 44.393 19.7199C42.8069 21.3066 42.0139 23.2331 42.0139 25.5C42.0139 27.7259 42.8069 29.6322 44.393 31.219C45.1483 32.0152 46.0256 32.6112 47.0249 33.0065C48.0241 33.4011 49.0729 33.5991 50.1709 33.5991C51.3038 33.5991 52.3235 33.4102 53.2298 33.0322L55.6612 39.1C53.9241 39.9663 51.9052 40.3991 49.6044 40.3991C47.5245 40.3991 45.6073 40.0129 43.8527 39.2396C42.0981 38.4664 40.5788 37.4 39.2949 36.0397C38.0109 34.6801 37.0087 33.0934 36.2883 31.2801C35.5737 29.4669 35.2164 27.5397 35.2164 25.5C35.2164 23.4248 35.5737 21.4782 36.2883 19.6587C37.0087 17.8455 38.0109 16.2587 39.2949 14.8991C40.5788 13.5389 42.0981 12.4725 43.8527 11.6992C45.6073 10.9267 47.5245 10.5397 49.6044 10.5397C51.452 10.5397 53.0933 10.8218 54.5283 11.3859C55.9633 11.9556 57.2299 12.676 58.3279 13.5479V11.281ZM84.6119 10.5397C86.6856 10.5397 88.6002 10.9267 90.3545 11.6992C92.115 12.4725 93.6373 13.5389 94.9213 14.8991C96.2054 16.2587 97.2048 17.8455 97.9194 19.6587C98.6396 21.4782 99 23.4248 99 25.5C99 27.5397 98.6396 29.4669 97.9194 31.2801C97.2048 33.0934 96.2054 34.6801 94.9213 36.0397C93.6373 37.4 92.115 38.4664 90.3545 39.2396C88.6002 40.0129 86.6856 40.3991 84.6119 40.3991C82.3055 40.3991 80.2832 39.9663 78.5463 39.1L80.9867 33.0322C81.893 33.4102 82.9125 33.5991 84.0452 33.5991C85.1376 33.5991 86.1744 33.4011 87.1564 33.0065C88.1384 32.6112 89.0273 32.0152 89.8232 31.219C91.4094 29.6322 92.2025 27.7259 92.2025 25.5C92.2025 23.2331 91.4094 21.3066 89.8232 19.7199C88.1613 18.1331 86.2355 17.3397 84.0452 17.3397C81.7791 17.3397 79.8533 18.1331 78.2671 19.7199C76.681 21.3066 75.8886 23.2331 75.8886 25.5V37.4V51H69.0907V11.281H75.8886V13.5479C76.9803 12.676 78.2442 11.9556 79.679 11.3859C81.1145 10.8218 82.7583 10.5397 84.6119 10.5397Z" fill="white"/>
</g>
<defs>
<filter id="filter0_d_35_2061" x="0" y="0" width="300" height="59" filterUnits="userSpaceOnUse" color-interpolation-filters="sRGB">
<feFlood flood-opacity="0" result="BackgroundImageFix"/>
<feColorMatrix in="SourceAlpha" type="matrix" values="0 0 0 0 0 0 0 0 0 0 0 0 0 0 0 0 0 0 127 0" result="hardAlpha"/>
<feOffset dy="4"/>
<feGaussianBlur stdDeviation="2"/>
<feComposite in2="hardAlpha" operator="out"/>
<feColorMatrix type="matrix" values="0 0 0 0 0.690196 0 0 0 0 0.890196 0 0 0 0 0.219608 0 0 0 0.5 0"/>
<feBlend mode="normal" in2="BackgroundImageFix" result="effect1_dropShadow_35_2061"/>
<feBlend mode="normal" in="SourceGraphic" in2="effect1_dropShadow_35_2061" result="shape"/>
</filter>
</defs>
</svg>
